<?xml version="1.0" encoding="utf-8" ?>
<svg baseProfile="full" height="200mm" version="1.1" viewBox="0,0,200,200" width="200mm" xmlns="http://www.w3.org/2000/svg" xmlns:ev="http://www.w3.org/2001/xml-events" xmlns:xlink="http://www.w3.org/1999/xlink"><defs /><rect fill="#1a1a1a" height="200" width="200" x="0" y="0" /><text alignment-baseline="middle" fill="#e1ed5e" style="dominant-baseline: central; font-size:9.0px; font-family:Arial;" text-anchor="middle" x="100.0" y="100.0">2023</text><line stroke="#e1ed5e" stroke-width="0.3" x1="100.0" x2="100.0" y1="15.0" y2="10.0" /><path d="M 100.0 14.0 a86.0,86.0 0 0,1 42.46469731375804,11.215312516191453" fill="none" id="id121" stroke="none" /><text fill="#e1ed5e" style="font-size:6.75px; font-family:Arial;" text-anchor="middle"><textPath startOffset="22.20632615414155" xlink:href="#id121">January</textPath></text><path d="M 100.0 79.0 l 0.0 -16.327161501642287 a37.32716150164229,37.32716150164229 0 0,0 0.6425257252141298,0.0055304217695289985 l -0.28104524594160135 16.324742456481317" fill="#ffc011" stroke="none" /><path d="M 101.08401301168833 79.027996857942 l 0.9486892543467716 -18.353943918080518 a39.37844576261436,39.37844576261436 0 0,0 0.6766303661362968,0.04081619148272062 l -1.2644816693226804 18.33489445721749" fill="#ffdb14" stroke="none" /><path d="M 101.80526077348638 79.07773832637324 l 1.0406242220823398 -12.06042506328536 a33.105236531299425,33.105236531299425 0 0,0 0.567321085207085,0.05387397295968515 l -1.248070434379669 12.040725545810497" fill="#ff870c" stroke="none" /><path d="M 102.16513564639614 79.11191278185805 l 1.2456482995377083 -12.017358065848127 a33.081743854632336,33.081743854632336 0 0,0 0.5659078046926886,0.06358633562962118 l -1.4523228077401222 11.994135776747905" fill="#ff870c" stroke="none" /><path d="M 102.52436894288641 79.15227682838746 l 0.5805804313975879 -4.794774609607037 a25.829796806725323,25.829796806725323 0 0,0 0.4409334152783856,0.057245812176886846 l -0.6630285751838195 4.784070474266014" fill="#ff2003" stroke="none" /><path d="M 102.88285421437855 79.19881850522331 l 2.0305642219965865 -14.65149875005248 a35.7915383473945,35.7915383473945 0 0,0 0.6095316357716933,0.08982911863199466 l -2.282464838196936 14.614375147259517" fill="#ffac0f" stroke="none" /><path d="M 104.307194497241 79.44645832069477 l 5.2409048687006035 -25.00912292795498 a46.55236414636292,46.55236414636292 0 0,0 0.7828717193401192,0.17110543542023662 l -5.67061931219425 24.915203994438876" fill="#cbff1d" stroke="none" /><path d="M 104.66035177308747 79.52364482259891 l 2.6760449183610873 -11.757834791672582 a33.0585196186494,33.0585196186494 0 0,0 0.5537716259964557,0.13105985222970737 l -2.8780402313200666 11.710029027302006" fill="#ff870c" stroke="none" /><path d="M 105.01212808612495 79.60689891045804 l 2.8798032917158722 -11.71720248102482 a33.065906554433106,33.065906554433106 0 0,0 0.5515568168375946,0.14060411353671765 l -3.0810689972384915 11.665895371319236" fill="#ff870c" stroke="none" /><path d="M 105.71112130821622 79.79150937346287 l 4.695165161393298 -16.61358532475213 a38.26429243367885,38.26429243367885 0 0,0 0.6322897041132386,0.18458270315595607 l -4.980445083229964 16.53030429267747" fill="#ffcc13" stroke="none" /><path d="M 106.74666289553966 80.11325718540242 l 4.621084562179013 -13.621300135407242 a35.383818683147204,35.383818683147204 0 0,0 0.575101622929538,0.20064166382373688 l -4.854868189171825 13.5397376184113" fill="#ffa60f" stroke="none" /><path d="M 107.08798089147638 80.2323363322302 l 3.1560243694525676 -8.801833585308769 a30.35054887608465,30.35054887608465 0 0,0 0.4902591714891037,0.18056659032678288 l -3.307065866714248 8.746203727175661" fill="#ff6108" stroke="none" /><path d="M 107.4271985657038 80.35727306442388 l 3.777426374837424 -9.990167105912509 a31.680467631212302,31.680467631212302 0 0,0 0.5084214729715079,0.1972596327114464 l -3.948831012808599 9.923664769310516" fill="#ff730a" stroke="none" /><path d="M 108.09893153111575 80.62456947434976 l 9.810295691459872 -23.469602363681233 a46.43745538891789,46.43745538891789 0 0,0 0.7348533653630984,0.31462586061628955 l -10.212832814613286 23.29725697510215" fill="#ccff1d" stroke="none" /><path d="M 109.08828744355905 81.06846463323043 l 6.26514804935137 -13.050739494204917 a35.47666679266644,35.47666679266644 0 0,0 0.5482475107103395,0.2690226724927663 l -6.488866827072141 12.940961661577319" fill="#ffa70f" stroke="none" /><path d="M 109.41281617654863 81.2277094730956 l 5.581166698021358 -11.130705281950686 a33.45158711910845,33.45158711910845 0 0,0 0.5125093966230581,0.26252721892329284 l -5.771936582233171 11.032985537714893" fill="#ff8c0c" stroke="none" /><path d="M 109.73455568895987 81.39251694778311 l 8.274014262657284 -15.815676142343452 a38.84922754233774,38.84922754233774 0 0,0 0.5898699352582454,0.315088090925433 l -8.54502924444384 15.670909324916265" fill="#ffd413" stroke="none" /><line stroke="#e1ed5e" stroke-width="0.3" x1="143.23703022742887" x2="145.7803849466894" y1="26.81831364943548" y2="22.513508569990506" /><path d="M 143.74570117128098 25.957352633546492 a86.0,86.0 0 0,1 28.547481713284135,27.462654790039103" fill="none" id="id122" stroke="none" /><text fill="#e1ed5e" style="font-size:6.75px; font-family:Arial;" text-anchor="middle"><textPath startOffset="19.985693538727396" xlink:href="#id122">February</textPath></text><path d="M 110.68208982089419 81.91981866633111 l 6.159423636561977 -10.425253684171377 a33.10885683761961,33.10885683761961 0 0,0 0.48817895338555145,0.29412235714320334 l -6.337964656165165 10.31768471756956" fill="#ff870c" stroke="none" /><path d="M 110.99172775467656 82.1063720568725 l 8.931340547591244 -14.539487181528088 a38.06357323302675,38.06357323302675 0 0,0 0.5553309443273889,0.3477481863916522 l -9.180290644290896 14.383594653813493" fill="#ffca12" stroke="none" /><path d="M 111.60114157652 82.49532879139004 l 6.6737336265905105 -10.069829085074744 a33.08057028129476,33.08057028129476 0 0,0 0.4719420744109702,0.3186573953463125 l -6.8460803954080225 9.953459777429762" fill="#ff870c" stroke="none" /><path d="M 112.77801427241765 83.33499621200491 l 21.24441012526153 -27.70682264578653 a55.91408000642984,55.91408000642984 0 0,0 0.7587472623830236,0.5922142733396022 l -21.718189942803985 27.337029983223704" fill="#61ff29" stroke="none" /><path d="M 113.89432698308785 84.25364557470407 l 23.92563465463899 -27.114773071100014 a57.161400862307765,57.161400862307765 0 0,0 0.7321804174086614,0.6573588080182315 l -24.388826059643645 26.698915254312485" fill="#54ff2b" stroke="none" /><path d="M 114.16331599549186 84.49514656593476 l 8.15361204798909 -8.925915357853958 a33.08939015851031,33.08939015851031 0 0,0 0.4172290306671388,0.38776891274268155 l -8.306048962451078 8.784241859036635" fill="#ff870c" stroke="none" /><path d="M 114.42810811169701 84.74124197986012 l 8.441888797285074 -8.927902216526425 a33.28710398969524,33.28710398969524 0 0,0 0.4129451600443588,0.3972529167866517 l -8.594317200941852 8.78126621297747" fill="#ff8a0c" stroke="none" /><path d="M 115.19652480421416 85.50635884689758 l 6.894537307810344 -6.575644822977495 a30.52752588696244,30.52752588696244 0 0,0 0.35940009422141633,0.3833829620685182 l -7.006704724002223 6.4559924440309215" fill="#ff6309" stroke="none" /><path d="M 115.4437574822437 85.77008943001954 l 10.679019770134671 -9.839671237960447 a35.52103967772533,35.52103967772533 0 0,0 0.410447912844294,0.4532268369016313 l -10.846811323595 9.654391613789267" fill="#ffa80f" stroke="none" /><path d="M 115.68641384162765 86.03803664274999 l 19.576117247416974 -17.424061002416178 a47.20729418121101,47.20729418121101 0 0,0 0.5350342911239201,0.6116366847837437 l -19.873143402118743 17.084508761429486" fill="#c3ff1e" stroke="none" /><path d="M 116.15771136456269 86.58626213691792 l 15.103002655557908 -12.538144418856511 a40.62920667479692,40.62920667479692 0 0,0 0.4420873805204919,0.541946855517849 l -15.316588528154808 12.276313393730561" fill="#ffeb16" stroke="none" /><path d="M 116.60985879189232 87.15038557335679 l 23.4175979452256 -18.116174746842603 a50.607088357053485,50.607088357053485 0 0,0 0.5270946580424636,0.6935947846425564 l -23.725968543492176 17.710395186319012" fill="#9bff22" stroke="none" /><path d="M 116.82858285166822 87.43820079747576 l 9.783714021549299 -7.303113522802673 a33.2088708397789,33.2088708397789 0 0,0 0.33799891879365507,0.4610301453837206 l -9.90797555285658 7.1336209337474585" fill="#ff890c" stroke="none" /><path d="M 117.04232023915458 87.72973835380427 l 15.227224750196651 -10.96341514584807 a39.76339109151681,39.76339109151681 0 0,0 0.39514847212391735,0.5589094908170769 l -15.413685842124451 10.6996791546992" fill="#ffe015" stroke="none" /><path d="M 117.65298651832404 88.62581576622439 l 14.204733712733686 -9.15240364981004 a37.897957048670975,37.897957048670975 0 0,0 0.34861140287901426,0.5514195201451141 l -14.360172711858656 8.90653648195072" fill="#ffc712" stroke="none" /><line stroke="#e1ed5e" stroke-width="0.3" x1="172.23445277983987" x2="176.4835382374775" y1="55.19839476539836" y2="52.563006222186495" /><path d="M 173.08426987136738 54.67131705675599 a86.0,86.0 0 0,1 12.851231095245387,41.99856678651699" fill="none" id="id123" stroke="none" /><text fill="#e1ed5e" style="font-size:6.75px; font-family:Arial;" text-anchor="middle"><textPath startOffset="22.20632615414155" xlink:href="#id123">March</textPath></text><path d="M 117.84615892207809 88.93136811851018 l 10.703184743500001 -6.638381536478238 a33.59469225814376,33.59469225814376 0 0,0 0.30056723508291966,0.4940535056431123 l -10.815867776869144 6.453160257628044" fill="#ff8e0d" stroke="none" /><path d="M 118.21658344932153 89.55222093294921 l 11.296126965968892 -6.478681317060765 a34.02212717029448,34.02212717029448 0 0,0 0.28698856453308413,0.5105206332597753 l -11.405973171794408 6.283277173866196" fill="#ff940d" stroke="none" /><path d="M 118.3937258080291 89.86733742301442 l 26.47452327842884 -14.584180174620842 a51.225795178719025,51.225795178719025 0 0,0 0.4188121020609462,0.7759952185841416 l -26.721643479708252 14.12630397270424" fill="#94ff23" stroke="none" /><path d="M 118.89224826269711 90.83032412892265 l 24.786860617958556 -12.030726812807803 a48.552256657822376,48.552256657822376 0 0,0 0.3584585507279714,0.7550051261609032 l -24.990277362528285 11.60227927100636" fill="#b3ff20" stroke="none" /><path d="M 119.04729006885535 91.15688171328212 l 13.409238481511771 -6.22553032993968 a35.783940765000885,35.783940765000885 0 0,0 0.2545732304862842,0.5609183684160767 l -13.514414028961403 5.99378995268154" fill="#ffab0f" stroke="none" /><path d="M 119.47837535516314 92.15188598940014 l 16.840548814208432 -6.785296241862724 a39.15610997580631,39.15610997580631 0 0,0 0.24650906192109948,0.6273386745604826 l -16.95485142601123 6.494408562406457" fill="#ffd814" stroke="none" /><path d="M 119.61058180528143 92.48833698450437 l 23.90079030820995 -9.154990116149728 a46.594171629178035,46.594171629178035 0 0,0 0.2804423569759931,0.7514460895279456 l -24.054837253687566 8.74222088959245" fill="#caff1d" stroke="none" /><path d="M 119.97218684219823 93.5106431181261 l 24.21359760070685 -7.8674747771275 a46.459683190049596,46.459683190049596 0 0,0 0.24058265584687366,0.7627127641738519 l -24.34543574032193 7.449511846527229" fill="#ccff1d" stroke="none" /><path d="M 120.08093135843002 93.85539295169968 l 2.5925982890387775 -0.7933146842589727 a23.711256918218506,23.711256918218506 0 0,0 0.11606558967915305,0.39131546910274156 l -2.605869775829633 0.7485698284097012" fill="#ff0000" stroke="none" /><path d="M 120.18372546131832 94.20196356495316 l 17.4427519410003 -5.010656306994685 a39.14817544278475,39.14817544278475 0 0,0 0.18047910909764714,0.6492793808806522 l -17.52641782066431 4.709665622695081" fill="#ffd814" stroke="none" /><path d="M 120.28053869075195 94.5502522615342 l 14.003010553337546 -3.762862331145233 a35.499773704442234,35.499773704442234 0 0,0 0.15350046048273944,0.5914998910186317 l -14.065707345690589 3.5212660145777512" fill="#ffa80f" stroke="none" /><path d="M 120.45610955862082 95.25157060432595 l 25.617449388345037 -5.946519271869365 a47.29857039109034,47.29857039109034 0 0,0 0.17726966555038284,0.7946651515740177 l -25.71601344089746 5.504675950745383" fill="#c2ff1e" stroke="none" /><path d="M 120.67395015179393 96.31383870115 l 11.896337919524093 -2.121114741741128 a33.08395562897921,33.08395562897921 0 0,0 0.09513707114198065,0.5615043792807821 l -11.931086852186297 1.9160245741445079" fill="#ff870c" stroke="none" /><path d="M 120.78858239683441 97.02765380044208 l 14.366885952392096 -2.0541736826931145 a35.51299560696241,35.51299560696241 0 0,0 0.08131461496305904,0.6058883306815612 l -14.40011656641299 1.8065670099468891" fill="#ffa80f" stroke="none" /><path d="M 120.83666639777658 97.38593545837742 l 11.990453407497018 -1.5042626537352524 a33.08444367973882,33.08444367973882 0 0,0 0.06602654074716656,0.5656750793928083 l -12.014570301247772 1.2976438360175913" fill="#ff870c" stroke="none" /><path d="M 120.87857604477298 97.74499172005257 l 62.63572813431897 -6.7650248398422885 a84.0,84.0 0 0,0 0.1428914972710853,1.43889787718226 l -62.74289675727228 5.6858514319555935" fill="#4dd2ff" stroke="none" /><path d="M 120.94382443527127 98.46500227214037 l 12.28616050285658 -0.9004672720729553 a33.31911446533506,33.31911446533506 0 0,0 0.03699914559942113,0.572360406213581 l -12.299840239460417 0.6888478016063391" fill="#ff8a0c" stroke="none" /><path d="M 120.96714384426684 98.82574320788733 l 28.038032168894926 -1.5702591614928465 a49.08196862291244,49.08196862291244 0 0,0 0.03998168494927494,0.8439501778481953 l -28.060907462077697 1.0873978770216512" fill="#adff20" stroke="none" /><path d="M 120.98425023603335 99.18683210126433 l 14.501662431179358 -0.5619589089290804 a35.51254667807148,35.51254667807148 0 0,0 0.018412926613762343,0.6110353931309718 l -14.509187052248766 0.3122533683731096" fill="#ffa80f" stroke="none" /><line stroke="#e1ed5e" stroke-width="0.3" x1="184.98032266829074" x2="189.97916517819016" y1="98.17113171792111" y2="98.06355123074" /><path d="M 185.9800911702706 98.14961562048488 a86.0,86.0 0 0,1 -9.607161424134198,41.387399972396054" fill="none" id="id124" stroke="none" /><text fill="#e1ed5e" style="font-size:6.75px; font-family:Arial;" text-anchor="middle"><textPath startOffset="21.466115282336823" xlink:href="#id124">April</textPath></text><path d="M 120.9904718944345 100.63252640178507 l 27.662516567821225 0.8335816439459444 a48.67507328304855,48.67507328304855 0 0,0 -0.03244510520352678,0.8372639987189425 l -27.644069329766495 -1.309622889678893" fill="#b2ff20" stroke="none" /><path d="M 120.9764740272857 100.99374915477107 l 17.031038172963537 0.8068362570011122 a38.050139178157835,38.050139178157835 0 0,0 -0.03662534104895032,0.6539700679414654 l -17.014626481027058 -1.099878041278001" fill="#ffc912" stroke="none" /><path d="M 120.95626037817324 101.35467743843564 l 4.817399955293777 0.3114116218060763 a25.82745476700304,25.82745476700304 0 0,0 -0.03249763028025605,0.44340434568662596 l -4.811325766349183 -0.39428910398947253" fill="#ff2003" stroke="none" /><path d="M 120.92983693683757 101.71520430193887 l 20.65165517650941 1.6924072513227713 a41.720885691344805,41.720885691344805 0 0,0 -0.06481717806467215,0.7152521588153222 l -20.619463402167664 -2.0476407986866643" fill="#fff817" stroke="none" /><path d="M 120.89721153311464 102.0752229133903 l 16.825637260290705 1.670890296517213 a37.90839861127831,37.90839861127831 0 0,0 -0.07007222799383547,0.6487818043976614 l -16.794382730795817 -1.9602684227996658" fill="#ffc812" stroke="none" /><path d="M 120.81339534386255 102.79330883721812 l 29.93753586759916 4.017834770440674 a51.20594395257907,51.20594395257907 0 0,0 -0.12476193885354436,0.8725847097594188 l -29.863939877729013 -4.532564952180502" fill="#95ff23" stroke="none" /><path d="M 120.70491114924044 103.5080841355445 l 27.83477137921267 4.716113930076258 a49.23147584407333,49.23147584407333 0 0,0 -0.1487577281523212,0.8343123393636286 l -27.749467208721157 -5.194545020173105" fill="#abff21" stroke="none" /><path d="M 120.5718875245553 104.21870165774334 l 13.044771005008835 2.675106841704484 a34.31623997935053,34.31623997935053 0 0,0 -0.12364625168572643,0.5776341239189895 l -12.996790714598665 -2.899254785039642" fill="#ff980e" stroke="none" /><line stroke="#e1ed5e" stroke-width="0.3" x1="174.80103733775053" x2="179.2010983576182" y1="140.37084112569926" y2="142.7455964860345" /><path d="M 175.68104954172406 140.8457921977663 a86.0,86.0 0 0,1 -30.038265399797805,32.042727171017184" fill="none" id="id125" stroke="none" /><text fill="#e1ed5e" style="font-size:6.75px; font-family:Arial;" text-anchor="middle"><textPath startOffset="22.206326154141568" xlink:href="#id125">May</textPath></text><line stroke="#e1ed5e" stroke-width="0.3" x1="143.8653032363475" x2="146.44561519142675" y1="172.8068346515853" y2="177.08958963109032" /><path d="M 144.38136562736335 173.6633856474863 a86.0,86.0 0 0,1 -40.68145358897372,12.25698825130547" fill="none" id="id126" stroke="none" /><text fill="#e1ed5e" style="font-size:6.75px; font-family:Arial;" text-anchor="middle"><textPath startOffset="21.466115282336833" xlink:href="#id126">June</textPath></text><line stroke="#e1ed5e" stroke-width="0.3" x1="102.19456741930631" x2="102.32365962044197" y1="184.97166512339345" y2="189.96999836594603" /><path d="M 102.22038585953345 185.97133177190398 a86.0,86.0 0 0,1 -42.740103519485714,-10.115201625700543" fill="none" id="id127" stroke="none" /><text fill="#e1ed5e" style="font-size:6.75px; font-family:Arial;" text-anchor="middle"><textPath startOffset="22.20632615414155" xlink:href="#id127">July</textPath></text><line stroke="#e1ed5e" stroke-width="0.3" x1="58.666819895761336" x2="56.23545636021788" y1="174.27360380694188" y2="178.64263932499728" /><path d="M 58.180547188652646 175.14741091055294 a86.0,86.0 0 0,1 -31.652253787137756,-30.449443065178592" fill="none" id="id128" stroke="none" /><text fill="#e1ed5e" style="font-size:6.75px; font-family:Arial;" text-anchor="middle"><textPath startOffset="22.20632615414155" xlink:href="#id128">August</textPath></text><line stroke="#e1ed5e" stroke-width="0.3" x1="26.63291911575756" x2="22.317208475507996" y1="142.92168965132927" y2="145.44649492493687" /><path d="M 25.769776987707644 143.4266507060508 a86.0,86.0 0 0,1 -11.730757126820373,-40.83630448921669" fill="none" id="id129" stroke="none" /><text fill="#e1ed5e" style="font-size:6.75px; font-family:Arial;" text-anchor="middle"><textPath startOffset="21.46611528233685" xlink:href="#id129">September</textPath></text><line stroke="#e1ed5e" stroke-width="0.3" x1="15.007084014347285" x2="10.007500721073583" y1="101.09737516637583" y2="101.16192664675087" /><path d="M 14.007167355692545 101.11028546245083 a86.0,86.0 0 0,1 10.666146001902534,-42.60595125391555" fill="none" id="id130" stroke="none" /><text fill="#e1ed5e" style="font-size:6.75px; font-family:Arial;" text-anchor="middle"><textPath startOffset="22.20632615414155" xlink:href="#id130">October</textPath></text><line stroke="#e1ed5e" stroke-width="0.3" x1="26.266209847984243" x2="21.928928074336255" y1="57.711370442889674" y2="55.22380399835377" /><path d="M 25.398753493254645 57.213857153982495 a86.0,86.0 0 0,1 29.58750427330803,-30.492523968695096" fill="none" id="id131" stroke="none" /><text fill="#e1ed5e" style="font-size:6.75px; font-family:Arial;" text-anchor="middle"><textPath startOffset="21.46611528233685" xlink:href="#id131">November</textPath></text><line stroke="#e1ed5e" stroke-width="0.3" x1="56.762969772571076" x2="54.21961505331055" y1="26.818313649435495" y2="22.513508569990535" /><path d="M 56.25429882871897 25.957352633546506 a86.0,86.0 0 0,1 42.265352541879196,-11.944610805530505" fill="none" id="id132" stroke="none" /><text fill="#e1ed5e" style="font-size:6.75px; font-family:Arial;" text-anchor="middle"><textPath startOffset="22.20632615414155" xlink:href="#id132">December</textPath></text></svg>