<?xml version="1.0" encoding="utf-8" ?>
<svg baseProfile="full" height="200mm" version="1.1" viewBox="0,0,200,200" width="200mm" xmlns="http://www.w3.org/2000/svg" xmlns:ev="http://www.w3.org/2001/xml-events" xmlns:xlink="http://www.w3.org/1999/xlink"><defs /><rect fill="#1a1a1a" height="200" width="200" x="0" y="0" /><text alignment-baseline="middle" fill="#e1ed5e" style="dominant-baseline: central; font-size:9.0px; font-family:Arial;" text-anchor="middle" x="100.0" y="100.0">2023</text><line stroke="#e1ed5e" stroke-width="0.3" x1="100.0" x2="100.0" y1="15.0" y2="10.0" /><path d="M 100.0 14.0 a86.0,86.0 0 0,1 42.46469731375804,11.215312516191453" fill="none" id="id121" stroke="none" /><text fill="#e1ed5e" style="font-size:6.75px; font-family:Arial;" text-anchor="middle"><textPath startOffset="22.20632615414155" xlink:href="#id121">January</textPath></text><path d="M 100.0 79.0 l 0.0 -14.182657992671729 a35.18265799267173,35.18265799267173 0 0,0 0.6056116225367822,0.005212690433586931 l -0.2441311432642539 14.1805566788467" fill="#ffa70f" stroke="none" /><path d="M 101.08401301168833 79.027996857942 l 0.8240829389952223 -15.943231123219425 a36.96451475425218,36.96451475425218 0 0,0 0.6351523699791568,0.03831412548302773 l -1.098397357813991 15.926683728356092" fill="#ffbf11" stroke="none" /><path d="M 101.80526077348638 79.07773832637324 l 0.9039426381125318 -10.476339313579853 a31.51526498507083,31.51526498507083 0 0,0 0.540073903867602,0.05128652477736503 l -1.084141669070378 10.459227244287309" fill="#ff750a" stroke="none" /><path d="M 102.16513564639614 79.11191278185805 l 1.082037671380871 -10.438928983844207 a31.494857971979897,31.494857971979897 0 0,0 0.5387619834174927,0.060536186315134057 l -1.261566358308089 10.418756844058473" fill="#ff750a" stroke="none" /><path d="M 102.52436894288641 79.15227682838746 l 0.5043236508024717 -4.165001273072641 a25.195423452937195,25.195423452937195 0 0,0 0.4301042008040939,0.05583986933758733 l -0.5759425801144117 4.155703080570918" fill="#ff1b02" stroke="none" /><path d="M 102.88285421437855 79.19881850522331 l 1.7638582119639339 -12.72708644617438 a33.84873243554819,33.84873243554819 0 0,0 0.576445556767749,0.08495309064347187 l -1.9826727491603389 12.694838871369939" fill="#ff950d" stroke="none" /><path d="M 104.307194497241 79.44645832069477 l 4.552534212234761 -21.72428055839302 a43.196169343680474,43.196169343680474 0 0,0 0.7264305472579564,0.1587695812998615 l -4.9258074836462455 21.642697478997288" fill="#f0ff19" stroke="none" /><path d="M 104.66035177308747 79.52364482259891 l 2.324557752817283 -10.213492992511618 a31.474684141026252,31.474684141026252 0 0,0 0.527240397197588,0.12478076756263846 l -2.5000218369773948 10.171966312808111" fill="#ff750a" stroke="none" /><path d="M 105.01212808612495 79.60689891045804 l 2.5015533268577146 -10.178197563767844 a31.48110083408239,31.48110083408239 0 0,0 0.5251214188852146,0.13386514198996727 l -2.676383634427954 10.13362942560901" fill="#ff750a" stroke="none" /><path d="M 105.71112130821622 79.79150937346287 l 4.078475103982431 -14.431461259774322 a35.996700746036495,35.996700746036495 0 0,0 0.5948193946931939,0.17364409233270714 l -4.326284716399052 14.359118838522912" fill="#ffb210" stroke="none" /><path d="M 106.74666289553966 80.11325718540242 l 4.014124677703944 -11.83220005612011 a33.49456502228871,33.49456502228871 0 0,0 0.544395133722855,0.18992877267724578 l -4.217201815490073 11.761350430270657" fill="#ff910d" stroke="none" /><path d="M 107.08798089147638 80.2323363322302 l 2.741493935977843 -7.645750024356001 a29.122393885791496,29.122393885791496 0 0,0 0.4704205105653872,0.17325984408323136 l -2.8726967723158063 7.597426912466445" fill="#ff5407" stroke="none" /><path d="M 107.4271985657038 80.35727306442388 l 3.2812774199255754 -8.678000970257107 a30.277633445351068,30.277633445351068 0 0,0 0.4859081997644021,0.18852483247177396 l -3.4301687846896445 8.620233433894786" fill="#ff6409" stroke="none" /><path d="M 108.09893153111575 80.62456947434976 l 8.521754904241083 -20.386969499542808 a43.09635336482574,43.09635336482574 0 0,0 0.6819818191971234,0.2919890238014178 l -8.87142048122852 20.2372609477786" fill="#f1ff19" stroke="none" /><path d="M 109.08828744355905 81.06846463323043 l 5.442247389325276 -11.336580138509932 a33.575217925884054,33.575217925884054 0 0,0 0.5188629968255138,0.254603819145025 l -5.636581653161222 11.241221159230076" fill="#ff920d" stroke="none" /><path d="M 109.41281617654863 81.2277094730956 l 4.84810409146525 -9.668734287662462 a31.816123890151307,31.816123890151307 0 0,0 0.48745258034442984,0.24969214441335516 l -5.013817159398435 9.583849617936606" fill="#ff7a0b" stroke="none" /><path d="M 109.73455568895987 81.39251694778311 l 7.187257534137376 -13.738354068902463 a36.504807105686396,36.504807105686396 0 0,0 0.5542732652941244,0.2960735826213487 l -7.4226758459598114 13.612601759779361" fill="#ffb911" stroke="none" /><line stroke="#e1ed5e" stroke-width="0.3" x1="143.23703022742887" x2="145.7803849466894" y1="26.81831364943548" y2="22.513508569990506" /><path d="M 143.74570117128098 25.957352633546492 a86.0,86.0 0 0,1 28.547481713284135,27.462654790039103" fill="none" id="id122" stroke="none" /><text fill="#e1ed5e" style="font-size:6.75px; font-family:Arial;" text-anchor="middle"><textPath startOffset="19.985693538727396" xlink:href="#id122">February</textPath></text><path d="M 110.68208982089419 81.91981866633111 l 5.350409430356279 -9.055940769286266 a31.518409779489794,31.518409779489794 0 0,0 0.4647283466774775,0.27999362899221814 l -5.505499843251394 8.962500530835433" fill="#ff750a" stroke="none" /><path d="M 110.99172775467656 82.1063720568725 l 7.758246795673993 -12.629787122746706 a35.822345162236786,35.822345162236786 0 0,0 0.5226324035628315,0.32727236316465624 l -7.974498351609088 12.494370418259104" fill="#ffb010" stroke="none" /><path d="M 111.60114157652 82.49532879139004 l 5.7971669815727225 -8.747199685867512 a31.493838542529502,31.493838542529502 0 0,0 0.4493050563076265,0.3033727796734634 l -5.946876732286891 8.64611499389538" fill="#ff750a" stroke="none" /><path d="M 112.77801427241765 83.33499621200491 l 18.45404683675909 -24.067648844489984 a51.328263477406324,51.328263477406324 0 0,0 0.6965182900600007,0.5436435733818796 l -18.86559768197852 23.746426881884883" fill="#91ff24" stroke="none" /><path d="M 113.89432698308785 84.25364557470407 l 20.78310388062417 -23.553362473791626 a52.4117540219363,52.4117540219363 0 0,0 0.6713421882248829,0.6027376451636847 l -21.185457056445046 23.192125819858642" fill="#85ff25" stroke="none" /><path d="M 114.16331599549186 84.49514656593476 l 7.082669640398008 -7.753534181630114 a31.50149996622969,31.50149996622969 0 0,0 0.397207087604501,0.36916069873614255 l -7.215084611797355 7.630468896819331" fill="#ff750a" stroke="none" /><path d="M 114.42810811169701 84.74124197986012 l 7.333082459680332 -7.755260074831362 a31.673244923112403,31.673244923112403 0 0,0 0.3929243348399374,0.3779928988024773 l -7.465490038132687 7.627884089266583" fill="#ff780b" stroke="none" /><path d="M 115.19652480421416 85.50635884689758 l 5.988969034486133 -5.7119617268556775 a29.276125715882877,29.276125715882877 0 0,0 0.34466737919367246,0.3676671288857698 l -6.0864037356502685 5.608025181091853" fill="#ff5608" stroke="none" /><path d="M 115.4437574822437 85.77008943001954 l 9.276375754693515 -8.547272097129973 a33.61376262043338,33.61376262043338 0 0,0 0.3884092029843404,0.4288911430251497 l -9.42212859829389 8.386328166835273" fill="#ff920d" stroke="none" /><path d="M 115.68641384162765 86.03803664274999 l 17.004877162305913 -15.135484389975609 a43.7650770924306,43.7650770924306 0 0,0 0.4960211637686292,0.567037936115671 l -17.26289018965239 14.840530897656992" fill="#e9ff1a" stroke="none" /><path d="M 116.15771136456269 86.58626213691792 l 13.119287226052432 -10.891312255193965 a38.05099351826165,38.05099351826165 0 0,0 0.41403378080540854,0.5075564593621253 l -13.304819498934249 10.663871626223738" fill="#ffcd13" stroke="none" /><path d="M 116.60985879189232 87.15038557335679 l 20.34179564118477 -15.736691925543873 a46.71832270322467,46.71832270322467 0 0,0 0.4865914860747271,0.6402973580614669 l -20.609663067483613 15.384209791601373" fill="#c6ff1e" stroke="none" /><path d="M 116.82858285166822 87.43820079747576 l 8.498664624085663 -6.343880494178235 a31.605287366078308,31.605287366078308 0 0,0 0.3216776929705556,0.4387680117031754 l -8.606604929569844 6.196650038803566" fill="#ff770a" stroke="none" /><path d="M 117.04232023915458 87.72973835380427 l 13.227193274707455 -9.523417002373638 a37.29889914465285,37.29889914465285 0 0,0 0.3706575974617522,0.5242688854427937 l -13.38916349197309 9.29432161659905" fill="#ffc312" stroke="none" /><path d="M 117.65298651832404 88.62581576622439 l 12.339002104218281 -7.950274195736937 a35.678481962222925,35.678481962222925 0 0,0 0.32819514871132927,0.51912590902588 l -12.474024849175565 7.736700638996851" fill="#ffae10" stroke="none" /><line stroke="#e1ed5e" stroke-width="0.3" x1="172.23445277983987" x2="176.4835382374775" y1="55.19839476539836" y2="52.563006222186495" /><path d="M 173.08426987136738 54.67131705675599 a86.0,86.0 0 0,1 12.851231095245387,41.99856678651699" fill="none" id="id123" stroke="none" /><text fill="#e1ed5e" style="font-size:6.75px; font-family:Arial;" text-anchor="middle"><textPath startOffset="22.20632615414155" xlink:href="#id123">March</textPath></text><path d="M 117.84615892207809 88.93136811851018 l 9.297366761158909 -5.766458238761668 a31.940432775301204,31.940432775301204 0 0,0 0.2857667959228569,0.4697254751774186 l -9.395249355367989 5.605564990377168" fill="#ff7b0b" stroke="none" /><path d="M 118.21658344932153 89.55222093294921 l 9.812428534134273 -5.627733966748754 a32.311725922156626,32.311725922156626 0 0,0 0.2725607306553933,0.48485512669233 l -9.9078469060821 5.45799533012163" fill="#ff800b" stroke="none" /><path d="M 118.3937258080291 89.86733742301442 l 22.997206779587163 -12.668609880495476 a47.255765004419075,47.255765004419075 0 0,0 0.3863539103092506,0.7158551188132479 l -23.211868789114877 12.27087377834977" fill="#c0ff1e" stroke="none" /><path d="M 118.89224826269711 90.83032412892265 l 21.53121146141475 -10.450541802514532 a44.933384444375214,44.933384444375214 0 0,0 0.3317406229075557,0.6987303562500043 l -21.70791027816406 10.078369030623987" fill="#dbff1b" stroke="none" /><path d="M 119.04729006885535 91.15688171328212 l 11.647991802269175 -5.40783328955606 a33.84213276342215,33.84213276342215 0 0,0 0.24075886780352726,0.5304802514077864 l -11.73935298703605 5.206531029306211" fill="#ff950d" stroke="none" /><path d="M 119.47837535516314 92.15188598940014 l 14.628614056202435 -5.894076319856335 a36.771381831330274,36.771381831330274 0 0,0 0.23149589799355774,0.5891318099289593 l -14.727903504077695 5.641395505031592" fill="#ffbc11" stroke="none" /><path d="M 119.61058180528143 92.48833698450437 l 20.761522733869477 -7.952520940677981 a43.2324855907049,43.2324855907049 0 0,0 0.26020894315879534,0.6972305999183089 l -20.895336265529895 7.5939672037303385" fill="#f0ff19" stroke="none" /><path d="M 119.97218684219823 93.5106431181261 l 21.033244113403263 -6.834115288119555 a43.115661638425436,43.115661638425436 0 0,0 0.22326627461353737,0.7078151035362854 l -21.147765871785005 6.471050018156849" fill="#f1ff19" stroke="none" /><path d="M 120.08093135843002 93.85539295169968 l 2.2520714848153065 -0.6891161605939671 a23.3551448056351,23.3551448056351 0 0,0 0.114322436101026,0.3854384218053597 l -2.263599818028035 0.6502483520420774" fill="#ff0000" stroke="none" /><path d="M 120.18372546131832 94.20196356495316 l 15.151720352942833 -4.352527823882984 a36.76448946561409,36.76448946561409 0 0,0 0.16948995017357257,0.6097455293545907 l -15.224397073682768 4.091070991109442" fill="#ffbc11" stroke="none" /><path d="M 120.28053869075195 94.5502522615342 l 12.16377442740325 -3.2686263016858312 a33.59528984266824,33.59528984266824 0 0,0 0.14526550236164942,0.5597672381272388 l -12.218236261635202 3.0587626380097417" fill="#ff920d" stroke="none" /><path d="M 120.45610955862082 95.25157060432595 l 22.252705914799087 -5.165469152202074 a43.844364558745895,43.844364558745895 0 0,0 0.16432369471915398,0.7366309027874008 l -22.338323996520277 4.781660079864709" fill="#e8ff1a" stroke="none" /><path d="M 120.67395015179393 96.31383870115 l 10.333804321154728 -1.8425153044699598 a31.496779239134362,31.496779239134362 0 0,0 0.09057294601713382,0.5345666544336265 l -10.363989128692085 1.6643628617204953" fill="#ff750a" stroke="none" /><path d="M 120.78858239683441 97.02765380044208 l 12.47985633399911 -1.784366669996679 a33.60677510429423,33.60677510429423 0 0,0 0.07694991456085576,0.5733662429631666 l -12.508722247617804 1.569282084968848" fill="#ff920d" stroke="none" /><path d="M 120.83666639777658 97.38593545837742 l 10.415558138411885 -1.306684125524814 a31.49720318649385,31.49720318649385 0 0,0 0.0628588889009615,0.5385365728269056 l -10.436507380316435 1.1272038143730556" fill="#ff750a" stroke="none" /><path d="M 120.87857604477298 97.74499172005257 l 54.40879053971858 -5.876467480631043 a75.72521683872878,75.72521683872878 0 0,0 0.12881535256266138,1.2971530209334903 l -54.50188301796347 4.939038928993118" fill="#42ffdb" stroke="none" /><path d="M 120.94382443527127 98.46500227214037 l 10.672425359273836 -0.7821947098471601 a31.701050958358444,31.701050958358444 0 0,0 0.03520237013751553,0.5445650850895447 l -10.684308320415767 0.5983705605045802" fill="#ff780b" stroke="none" /><path d="M 120.96714384426684 98.82574320788733 l 24.355355399587744 -1.3640122715189915 a45.393520986464466,45.393520986464466 0 0,0 0.03697711207883146,0.7805283933089566 l -24.375226119900073 0.944572771587035" fill="#d6ff1c" stroke="none" /><path d="M 120.98425023603335 99.18683210126433 l 12.59693049314821 -0.4881479864380852 a33.606385140311666,33.606385140311666 0 0,0 0.017424599507094424,0.578237628015596 l -12.60346678711095 0.2712402109974901" fill="#ff920d" stroke="none" /><line stroke="#e1ed5e" stroke-width="0.3" x1="184.98032266829074" x2="189.97916517819016" y1="98.17113171792111" y2="98.06355123074" /><path d="M 185.9800911702706 98.14961562048488 a86.0,86.0 0 0,1 -9.607161424134198,41.387399972396054" fill="none" id="id124" stroke="none" /><text fill="#e1ed5e" style="font-size:6.75px; font-family:Arial;" text-anchor="middle"><textPath startOffset="21.466115282336823" xlink:href="#id124">April</textPath></text><path d="M 120.9904718944345 100.63252640178507 l 24.02916218220547 0.7240942256781879 a45.040069626072096,45.040069626072096 0 0,0 -0.030022138618967402,0.7747379973814573 l -24.013137910735303 -1.1376094700736514" fill="#daff1c" stroke="none" /><path d="M 120.9764740272857 100.99374915477107 l 14.794083444509479 0.7008617320275267 a35.81067561357449,35.81067561357449 0 0,0 -0.03446973482539553,0.6154802707655406 l -14.779827358796554 -0.9554137191284906" fill="#ffb010" stroke="none" /><path d="M 120.95626037817324 101.35467743843564 l 4.1846548754338775 0.27050902427678925 a25.19338903021264,25.19338903021264 0 0,0 -0.031699811289825824,0.43251873943234465 l -4.179378505479714 -0.3425009002059042" fill="#ff1b02" stroke="none" /><path d="M 120.92983693683757 101.71520430193887 l 17.939147739891006 1.4701167271123114 a38.999285119831065,38.999285119831065 0 0,0 -0.0605889248542827,0.6685937369733321 l -17.911184218759647 -1.7786918526342141" fill="#ffd914" stroke="none" /><path d="M 120.89721153311464 102.0752229133903 l 14.615661071733383 1.4514259331846397 a35.687552069807396,35.687552069807396 0 0,0 -0.06596707792434739,0.6107732131817525 l -14.588511692307984 -1.7027954682511837" fill="#ffae10" stroke="none" /><path d="M 120.81339534386255 102.79330883721812 l 26.00536733288229 3.4901091910246023 a47.23852115275203,47.23852115275203 0 0,0 -0.11509541730251946,0.804977080545787 l -25.941437864563166 -3.937231743550799" fill="#c0ff1e" stroke="none" /><path d="M 120.70491114924044 103.5080841355445 l 24.178792053711987 4.096672340628136 a45.523391067369,45.523391067369 0 0,0 -0.13755338666709335,0.7714724420912156 l -24.104692224705705 -4.512263533452571" fill="#d4ff1c" stroke="none" /><path d="M 120.5718875245553 104.21870165774334 l 11.331395585090009 2.323742888556267 a32.567208259468366,32.567208259468366 0 0,0 -0.11734424376256812,0.5481932409484603 l -11.289717302602998 -2.5184499489208965" fill="#ff840c" stroke="none" /><path d="M 120.41448212921028 104.9243191809786 l 10.464808730266245 2.524289278050663 a31.764955091422266,31.764955091422266 0 0,0 -0.1327906504263036,0.5304326396835112 l -10.41980676554488 -2.7040497571315703" fill="#ff790b" stroke="none" /><path d="M 120.23288151984713 105.62410040840565 l 12.4130772298402 3.450442422125285 a33.883712167786854,33.883712167786854 0 0,0 -0.16104018876081877,0.5606020235643798 l -12.351844404193281 -3.663601921194247" fill="#ff960d" stroke="none" /><path d="M 120.13307415673323 105.97154293290107 l 17.217315414676758 5.106718297844101 a38.95868931358861,38.95868931358861 0 0,0 -0.19622791941090975,0.6412841943062854 l -17.126860722759716 -5.402329464702444" fill="#ffd914" stroke="none" /><path d="M 120.02730092923936 106.31721596034902 l 10.016912692853586 3.1596369855476425 a31.50342067027175,31.50342067027175 0 0,0 -0.1675798194459187,0.5157576514715091 l -9.96104062239142 -3.331593536996947" fill="#ff750a" stroke="none" /><path d="M 119.9155931802556 106.66101706037122 l 24.415270435225217 8.165989907036504 a46.74468530759319,46.74468530759319 0 0,0 -0.2617906474688668,0.7608861630302798 l -24.271088956813117 -8.585048773156085" fill="#c6ff1e" stroke="none" /><path d="M 119.79798401119884 107.00284435728193 l 9.885622869926596 3.496693314517463 a31.485819169822015,31.485819169822015 0 0,0 -0.18513022808807486,0.5093988774292199 l -9.823968380833294 -3.666339988952814" fill="#ff750a" stroke="none" /><path d="M 119.54520255179757 107.68017299344265 l 30.818877365134373 12.110097554663469 a54.1128021289449,54.1128021289449 0 0,0 -0.34811895727749825,0.8640027029348557 l -30.60585579359948 -12.638799625441138" fill="#73ff27" stroke="none" /><path d="M 119.41010516605496 108.01547362559984 l 9.703454581869034 4.007076912401149 a31.498271105486534,31.498271105486534 0 0,0 -0.21126193234982976,0.49936080230904195 l -9.633041668326895 -4.173512240376355" fill="#ff750a" stroke="none" /><path d="M 119.26925614724726 108.34839909993367 l 10.535628283302923 4.564557604374721 a32.48192707900497,32.48192707900497 0 0,0 -0.22669123802556485,0.5111288970085908 l -10.455495960546084 -4.745234837875999" fill="#ff830c" stroke="none" /><path d="M 118.81262510543309 109.33194174019688 l 9.41109860428233 4.6683449754732695 a31.50534253366121,31.50534253366121 0 0,0 -0.24517357074715007,0.48375071470681064 l -9.329346363748911 -4.8296499018827745" fill="#ff750a" stroke="none" /><path d="M 118.64920377521936 109.65438752849418 l 13.053835809430288 6.757757122319405 a35.69931667336353,35.69931667336353 0 0,0 -0.28720523857381064,0.5432840752615332 l -12.935578062631585 -6.981456212667073" fill="#ffae10" stroke="none" /><line stroke="#e1ed5e" stroke-width="0.3" x1="174.80103733775053" x2="179.2010983576182" y1="140.37084112569926" y2="142.7455964860345" /><path d="M 175.68104954172406 140.8457921977663 a86.0,86.0 0 0,1 -30.038265399797805,32.042727171017184" fill="none" id="id125" stroke="none" /><text fill="#e1ed5e" style="font-size:6.75px; font-family:Arial;" text-anchor="middle"><textPath startOffset="22.206326154141568" xlink:href="#id125">May</textPath></text><path d="M 118.30583269289576 110.29060199501025 l 10.97193353400363 6.167859337966937 a33.58673167615562,33.58673167615562 0 0,0 -0.2876431737010587,0.5015301188630614 l -10.864138364150193 -6.355809302688313" fill="#ff920d" stroke="none" /><path d="M 117.94076556474637 110.91462005526583 l 53.8222966942391 32.74386016579747 a84.0,84.0 0 0,0 -0.7621414413281484,1.228814674538906 l -53.25069061324299 -33.665471171701654" fill="#4dd2ff" stroke="none" /><path d="M 117.75023020441432 111.22182372390056 l 8.869209682498896 5.607178412962929 a31.49301339687173,31.49301339687173 0 0,0 -0.2936275647956612,0.45571650117588713 l -8.771377254326184 -5.759016514060269" fill="#ff750a" stroke="none" /><path d="M 117.35343817320211 111.8261652097733 l 12.15499733883807 8.283488563980008 a35.70918567075513,35.70918567075513 0 0,0 -0.350526625721348,0.5049597478627053 l -12.010609805954585 -8.491489574029734" fill="#ffae10" stroke="none" /><path d="M 117.14729908036423 112.12312394758627 l 8.573696552162895 6.061595211218301 a31.50005757475808,31.50005757475808 0 0,0 -0.3168308905295651,0.44005039613278873 l -8.468085869257727 -6.208279212802221" fill="#ff750a" stroke="none" /><path d="M 116.71984013943494 112.70617746262583 l 8.400073584422874 6.383603238589314 a31.55043252816902,31.55043252816902 0 0,0 -0.3323209804310614,0.4295696645261222 l -8.288945786773743 -6.527250897228689" fill="#ff760a" stroke="none" /><path d="M 116.27256486870786 113.27417163493432 l 8.141460040077236 6.6413093942409365 a31.506681781333597,31.506681781333597 0 0,0 -0.3464294692091023,0.41729661253221895 l -8.02593457097459 -6.7804672638869254" fill="#ff750a" stroke="none" /><path d="M 116.0416608686014 113.55231037782055 l 11.835840986337013 9.999151081876335 a36.49419743684854,36.49419743684854 0 0,0 -0.4095300468188688,0.4763759650076596 l -11.661968429947365 -10.201404146045522" fill="#ffb911" stroke="none" /><path d="M 115.56566222782051 114.09645910891815 l 24.14501083075159 21.866024900100413 a53.57460042654281,53.57460042654281 0 0,0 -0.6249186102226469,0.6782257284722037 l -23.765045812533224 -22.278401883373952" fill="#78ff26" stroke="none" /><path d="M 115.07121518719521 114.62390073753431 l 7.536182176120731 7.3125078976511535 a31.50080061447175,31.50080061447175 0 0,0 -0.38094874449054505,0.3858990669186942 l -7.40919280657465 -7.441147458550512" fill="#ff750a" stroke="none" /><path d="M 114.81725581225074 114.88116024355365 l 7.404630784463538 7.43656576117481 a31.494335013449046,31.494335013449046 0 0,0 -0.3874553786008215,0.3792066365082204 l -7.275525453486922 -7.562922500605603" fill="#ff750a" stroke="none" /><path d="M 114.55890576462653 115.13401014063108 l 18.881274231325182 19.627120355376633 a48.23465384474244,48.23465384474244 0 0,0 -0.6033102431227378,0.5704674915992473 l -18.540628153811635 -19.9492224837218" fill="#b4ff20" stroke="none" /><path d="M 114.29624159901734 115.38237550388516 l 7.741624196698468 8.329781612795665 a32.3718075484848,32.3718075484848 0 0,0 -0.41143095329821755,0.3758324209041738 l -7.597093693933386 -8.461806800286421" fill="#ff810b" stroke="none" /><path d="M 114.0293411484842 115.62618273729858 l 8.863078922942163 9.871888451437183 a34.26681384477526,34.26681384477526 0 0,0 -0.4422991397215593,0.3902775655651039 l -8.691837430314017 -10.022989158774577" fill="#ff9b0e" stroke="none" /><path d="M 113.48314897796784 116.09983520530334 l 6.739794752284607 8.047792470932471 a31.49722806068919,31.49722806068919 0 0,0 -0.4186579628466058,0.3445270013337598 l -6.60026666089331 -8.16261459112341" fill="#ff750a" stroke="none" /><path d="M 113.20401910651253 116.32954008644616 l 16.434392388117647 20.324574444593797 a47.137665915694434,47.137665915694434 0 0,0 -0.6353315784871435,0.5047458303521993 l -16.08210331691315 -20.604454188951124" fill="#c1ff1e" stroke="none" /><path d="M 112.92097659922987 116.55440617244103 l 6.464009440068017 8.281714385254517 a31.50572278333195,31.50572278333195 0 0,0 -0.43038508355171146,0.33000092950600357 l -6.320495628022811 -8.391754656587892" fill="#ff750a" stroke="none" /><path d="M 112.34349029814194 116.9893568818739 l 22.39774942790224 30.827857371808204 a59.105327312222954,59.105327312222954 0 0,0 -0.8282420288825787,0.5909286964179428 l -21.863780071170776 -31.208830330070366" fill="#3fff2d" stroke="none" /><path d="M 112.04921762599082 117.19931262002967 l 21.70068915552376 30.97603084625581 a58.821084024824806,58.821084024824806 0 0,0 -0.8342597578958558,0.5738114686673849 l -21.164272513005024 -31.34498310428829" fill="#42ff2d" stroke="none" /><path d="M 111.45004920935366 117.60387380957326 l 32.87275585522573 50.54020600850937 a81.29038481300185,81.29038481300185 0 0,0 -1.179555217672833,0.7528479486423352 l -31.997918835505967 -51.09856838597552" fill="#4aecff" stroke="none" /><path d="M 111.1453310114006 117.79835938074945 l 12.276735652924401 19.605138057335214 a44.131789306903144,44.131789306903144 0 0,0 -0.6473099547967185,0.3976306436364825 l -11.937446498195374 -19.813557167800074" fill="#e5ff1a" stroke="none" /><line stroke="#e1ed5e" stroke-width="0.3" x1="143.8653032363475" x2="146.44561519142675" y1="172.8068346515853" y2="177.08958963109032" /><path d="M 144.38136562736335 173.6633856474863 a86.0,86.0 0 0,1 -40.68145358897372,12.25698825130547" fill="none" id="id126" stroke="none" /><text fill="#e1ed5e" style="font-size:6.75px; font-family:Arial;" text-anchor="middle"><textPath startOffset="21.466115282336833" xlink:href="#id126">June</textPath></text><path d="M 110.5260780823613 118.17145234162733 l 21.93259345050043 37.86282730335314 a64.75651205099052,64.75651205099052 0 0,0 -0.9693471149100525,0.5504205902516095 l -21.27759756866918 -38.234751059399386" fill="#35ff61" stroke="none" /><path d="M 110.21172684928248 118.3499491758327 l 12.800071864278923 23.001072357612838 a47.322826013383256,47.322826013383256 0 0,0 -0.7151993073598449,0.38998368698866115 l -12.40224974505043 -23.21799669636127" fill="#bfff1e" stroke="none" /><path d="M 109.89434966115114 118.52300852407294 l 16.438014850064103 30.773269554246824 a55.88842861564938,55.88842861564938 0 0,0 -0.8524558156710014,0.44596459320909926 l -15.905868131866606 -31.05166356640064" fill="#60ff29" stroke="none" /><line stroke="#e1ed5e" stroke-width="0.3" x1="102.19456741930631" x2="102.32365962044197" y1="184.97166512339345" y2="189.96999836594603" /><path d="M 102.22038585953345 185.97133177190398 a86.0,86.0 0 0,1 -42.740103519485714,-10.115201625700543" fill="none" id="id127" stroke="none" /><text fill="#e1ed5e" style="font-size:6.75px; font-family:Arial;" text-anchor="middle"><textPath startOffset="22.20632615414155" xlink:href="#id127">July</textPath></text><line stroke="#e1ed5e" stroke-width="0.3" x1="58.666819895761336" x2="56.23545636021788" y1="174.27360380694188" y2="178.64263932499728" /><path d="M 58.180547188652646 175.14741091055294 a86.0,86.0 0 0,1 -31.652253787137756,-30.449443065178592" fill="none" id="id128" stroke="none" /><text fill="#e1ed5e" style="font-size:6.75px; font-family:Arial;" text-anchor="middle"><textPath startOffset="22.20632615414155" xlink:href="#id128">August</textPath></text><line stroke="#e1ed5e" stroke-width="0.3" x1="26.63291911575756" x2="22.317208475507996" y1="142.92168965132927" y2="145.44649492493687" /><path d="M 25.769776987707644 143.4266507060508 a86.0,86.0 0 0,1 -11.730757126820373,-40.83630448921669" fill="none" id="id129" stroke="none" /><text fill="#e1ed5e" style="font-size:6.75px; font-family:Arial;" text-anchor="middle"><textPath startOffset="21.46611528233685" xlink:href="#id129">September</textPath></text><line stroke="#e1ed5e" stroke-width="0.3" x1="15.007084014347285" x2="10.007500721073583" y1="101.09737516637583" y2="101.16192664675087" /><path d="M 14.007167355692545 101.11028546245083 a86.0,86.0 0 0,1 10.666146001902534,-42.60595125391555" fill="none" id="id130" stroke="none" /><text fill="#e1ed5e" style="font-size:6.75px; font-family:Arial;" text-anchor="middle"><textPath startOffset="22.20632615414155" xlink:href="#id130">October</textPath></text><line stroke="#e1ed5e" stroke-width="0.3" x1="26.266209847984243" x2="21.928928074336255" y1="57.711370442889674" y2="55.22380399835377" /><path d="M 25.398753493254645 57.213857153982495 a86.0,86.0 0 0,1 29.58750427330803,-30.492523968695096" fill="none" id="id131" stroke="none" /><text fill="#e1ed5e" style="font-size:6.75px; font-family:Arial;" text-anchor="middle"><textPath startOffset="21.46611528233685" xlink:href="#id131">November</textPath></text><line stroke="#e1ed5e" stroke-width="0.3" x1="56.762969772571076" x2="54.21961505331055" y1="26.818313649435495" y2="22.513508569990535" /><path d="M 56.25429882871897 25.957352633546506 a86.0,86.0 0 0,1 42.265352541879196,-11.944610805530505" fill="none" id="id132" stroke="none" /><text fill="#e1ed5e" style="font-size:6.75px; font-family:Arial;" text-anchor="middle"><textPath startOffset="22.20632615414155" xlink:href="#id132">December</textPath></text></svg>