<?xml version="1.0" encoding="utf-8" ?>
<svg baseProfile="full" height="200mm" version="1.1" viewBox="0,0,200,200" width="200mm" xmlns="http://www.w3.org/2000/svg" xmlns:ev="http://www.w3.org/2001/xml-events" xmlns:xlink="http://www.w3.org/1999/xlink"><defs /><rect fill="#1a1a1a" height="200" width="200" x="0" y="0" /><text alignment-baseline="middle" fill="#e1ed5e" style="dominant-baseline: central; font-size:9.0px; font-family:Arial;" text-anchor="middle" x="100.0" y="100.0">2023</text><line stroke="#e1ed5e" stroke-width="0.3" x1="100.0" x2="100.0" y1="15.0" y2="10.0" /><path d="M 100.0 14.0 a86.0,86.0 0 0,1 42.46469731375804,11.215312516191453" fill="none" id="id121" stroke="none" /><text fill="#e1ed5e" style="font-size:6.75px; font-family:Arial;" text-anchor="middle"><textPath startOffset="22.20632615414155" xlink:href="#id121">January</textPath></text><path d="M 100.0 79.0 l 0.0 -40.25502958206217 a61.25502958206217,61.25502958206217 0 0,0 1.0544046405322256,0.009075593628486181 l -0.6929241612596972 40.24906536504224" fill="#54ff2b" stroke="none" /><path d="M 101.08401301168833 79.027996857942 l 2.339017348120949 -45.252112885361264 a66.31252280268987,66.31252280268987 0 0,0 1.1394321363999584,0.06873365812183778 l -3.1176115333605194 45.20514595785912" fill="#32ff4c" stroke="none" /><path d="M 101.80526077348638 79.07773832637324 l 2.565685336028644 -29.73528299122676 a50.84576679885863,50.84576679885863 0 0,0 0.87133875546373,0.08274411400282017 l -3.077149218582618 29.686713332708763" fill="#dfff1b" stroke="none" /><path d="M 102.16513564639614 79.11191278185805 l 3.071177383876072 -29.62910021991821 a50.78784501042647,50.78784501042647 0 0,0 0.8687945230825073,0.09761918757756038 l -3.5807386104683046 29.57184507887005" fill="#dfff1b" stroke="none" /><path d="M 102.52436894288641 79.15227682838746 l 1.4314357359866554 -11.821638055680245 a32.90798616835639,32.90798616835639 0 0,0 0.561763255039204,0.07293299321746202 l -1.6347137195337056 11.795246739298646" fill="#ff0000" stroke="none" /><path d="M 102.88285421437855 79.19881850522331 l 5.006407440541804 -36.12364069195886 a57.46891186068565,57.46891186068565 0 0,0 0.9786983591615583,0.14423469734882127 l -5.627474780132019 36.03211151044907" fill="#84ff25" stroke="none" /><path d="M 104.307194497241 79.44645832069477 l 12.921583491723009 -61.66062503791566 a84.0,84.0 0 0,0 1.4126291033858882,0.3087460076165178 l -13.981055319262426 61.429065532203275" fill="#4dd2ff" stroke="none" /><path d="M 104.66035177308747 79.52364482259891 l 6.597856421075836 -28.989239024319758 a50.73058506928976,50.73058506928976 0 0,0 0.8498008654242288,0.2011204088811327 l -7.095880973462588 28.87137270329776" fill="#e0ff1b" stroke="none" /><path d="M 105.01212808612495 79.60689891045804 l 7.1002278434547135 -28.88905903486177 a50.74879774627368,50.74879774627368 0 0,0 0.846516798116243,0.21579598032258818 l -7.596453530255982 28.762560058370315" fill="#e0ff1b" stroke="none" /><path d="M 105.71112130821622 79.79150937346287 l 11.576048442072656 -40.96121476134971 a63.56554959422733,63.56554959422733 0 0,0 1.0503746440468342,0.30663316176648847 l -12.279413303842919 40.75588327066452" fill="#38ff2e" stroke="none" /><path d="M 106.74666289553966 80.11325718540242 l 11.393400851275693 -33.583659954720964 a56.463668717607014,56.463668717607014 0 0,0 0.9177174404728026,0.3201735951266553 l -11.969800295811769 33.382565506422104" fill="#91ff24" stroke="none" /><path d="M 107.08798089147638 80.2323363322302 l 7.781257896006182 -21.70114329532131 a44.05401472126336,44.05401472126336 0 0,0 0.7116143054346493,0.262093554251748 l -8.153654527213408 21.56398647326324" fill="#ffba11" stroke="none" /><path d="M 107.4271985657038 80.35727306442388 l 9.313340255000673 -24.631009642294607 a47.332963044523225,47.332963044523225 0 0,0 0.7596193045929972,0.2947204887881204 l -9.735942724593338 24.46704644961594" fill="#ffec16" stroke="none" /><path d="M 108.09893153111575 80.62456947434976 l 24.187532121169458 -57.86489815355801 a83.7166895525764,83.7166895525764 0 0,0 1.3247816991593793,0.5672023860444317 l -25.179997578119153 57.43997623955079" fill="#4dd5ff" stroke="none" /><path d="M 109.08828744355905 81.06846463323043 l 15.446880955839767 -32.17692826485254 a56.69258807967491,56.69258807967491 0 0,0 0.8761130371141141,0.42990486239475073 l -15.998465259964313 31.90626824232296" fill="#8eff24" stroke="none" /><path d="M 109.41281617654863 81.2277094730956 l 13.760507636840078 -27.443035358538665 a51.69970293200795,51.69970293200795 0 0,0 0.7920874863404963,0.40573797534848294 l -14.23085561076933 27.202104857877682" fill="#d2ff1c" stroke="none" /><path d="M 109.73455568895987 81.39251694778311 l 20.399791407230882 -38.99394949368947 a65.00772189712774,65.00772189712774 0 0,0 0.9870492448004359,0.5272475228923144 l -21.06798569855963 38.6370232442954" fill="#30ff39" stroke="none" /><line stroke="#e1ed5e" stroke-width="0.3" x1="143.23703022742887" x2="145.7803849466894" y1="26.81831364943548" y2="22.513508569990506" /><path d="M 143.74570117128098 25.957352633546492 a86.0,86.0 0 0,1 28.547481713284135,27.462654790039103" fill="none" id="id122" stroke="none" /><text fill="#e1ed5e" style="font-size:6.75px; font-family:Arial;" text-anchor="middle"><textPath startOffset="19.985693538727396" xlink:href="#id122">February</textPath></text><line stroke="#e1ed5e" stroke-width="0.3" x1="172.23445277983987" x2="176.4835382374775" y1="55.19839476539836" y2="52.563006222186495" /><path d="M 173.08426987136738 54.67131705675599 a86.0,86.0 0 0,1 12.851231095245387,41.99856678651699" fill="none" id="id123" stroke="none" /><text fill="#e1ed5e" style="font-size:6.75px; font-family:Arial;" text-anchor="middle"><textPath startOffset="22.20632615414155" xlink:href="#id123">March</textPath></text><line stroke="#e1ed5e" stroke-width="0.3" x1="184.98032266829074" x2="189.97916517819016" y1="98.17113171792111" y2="98.06355123074" /><path d="M 185.9800911702706 98.14961562048488 a86.0,86.0 0 0,1 -9.607161424134198,41.387399972396054" fill="none" id="id124" stroke="none" /><text fill="#e1ed5e" style="font-size:6.75px; font-family:Arial;" text-anchor="middle"><textPath startOffset="21.466115282336823" xlink:href="#id124">April</textPath></text><line stroke="#e1ed5e" stroke-width="0.3" x1="174.80103733775053" x2="179.2010983576182" y1="140.37084112569926" y2="142.7455964860345" /><path d="M 175.68104954172406 140.8457921977663 a86.0,86.0 0 0,1 -30.038265399797805,32.042727171017184" fill="none" id="id125" stroke="none" /><text fill="#e1ed5e" style="font-size:6.75px; font-family:Arial;" text-anchor="middle"><textPath startOffset="22.206326154141568" xlink:href="#id125">May</textPath></text><line stroke="#e1ed5e" stroke-width="0.3" x1="143.8653032363475" x2="146.44561519142675" y1="172.8068346515853" y2="177.08958963109032" /><path d="M 144.38136562736335 173.6633856474863 a86.0,86.0 0 0,1 -40.68145358897372,12.25698825130547" fill="none" id="id126" stroke="none" /><text fill="#e1ed5e" style="font-size:6.75px; font-family:Arial;" text-anchor="middle"><textPath startOffset="21.466115282336833" xlink:href="#id126">June</textPath></text><line stroke="#e1ed5e" stroke-width="0.3" x1="102.19456741930631" x2="102.32365962044197" y1="184.97166512339345" y2="189.96999836594603" /><path d="M 102.22038585953345 185.97133177190398 a86.0,86.0 0 0,1 -42.740103519485714,-10.115201625700543" fill="none" id="id127" stroke="none" /><text fill="#e1ed5e" style="font-size:6.75px; font-family:Arial;" text-anchor="middle"><textPath startOffset="22.20632615414155" xlink:href="#id127">July</textPath></text><line stroke="#e1ed5e" stroke-width="0.3" x1="58.666819895761336" x2="56.23545636021788" y1="174.27360380694188" y2="178.64263932499728" /><path d="M 58.180547188652646 175.14741091055294 a86.0,86.0 0 0,1 -31.652253787137756,-30.449443065178592" fill="none" id="id128" stroke="none" /><text fill="#e1ed5e" style="font-size:6.75px; font-family:Arial;" text-anchor="middle"><textPath startOffset="22.20632615414155" xlink:href="#id128">August</textPath></text><line stroke="#e1ed5e" stroke-width="0.3" x1="26.63291911575756" x2="22.317208475507996" y1="142.92168965132927" y2="145.44649492493687" /><path d="M 25.769776987707644 143.4266507060508 a86.0,86.0 0 0,1 -11.730757126820373,-40.83630448921669" fill="none" id="id129" stroke="none" /><text fill="#e1ed5e" style="font-size:6.75px; font-family:Arial;" text-anchor="middle"><textPath startOffset="21.46611528233685" xlink:href="#id129">September</textPath></text><line stroke="#e1ed5e" stroke-width="0.3" x1="15.007084014347285" x2="10.007500721073583" y1="101.09737516637583" y2="101.16192664675087" /><path d="M 14.007167355692545 101.11028546245083 a86.0,86.0 0 0,1 10.666146001902534,-42.60595125391555" fill="none" id="id130" stroke="none" /><text fill="#e1ed5e" style="font-size:6.75px; font-family:Arial;" text-anchor="middle"><textPath startOffset="22.20632615414155" xlink:href="#id130">October</textPath></text><line stroke="#e1ed5e" stroke-width="0.3" x1="26.266209847984243" x2="21.928928074336255" y1="57.711370442889674" y2="55.22380399835377" /><path d="M 25.398753493254645 57.213857153982495 a86.0,86.0 0 0,1 29.58750427330803,-30.492523968695096" fill="none" id="id131" stroke="none" /><text fill="#e1ed5e" style="font-size:6.75px; font-family:Arial;" text-anchor="middle"><textPath startOffset="21.46611528233685" xlink:href="#id131">November</textPath></text><line stroke="#e1ed5e" stroke-width="0.3" x1="56.762969772571076" x2="54.21961505331055" y1="26.818313649435495" y2="22.513508569990535" /><path d="M 56.25429882871897 25.957352633546506 a86.0,86.0 0 0,1 42.265352541879196,-11.944610805530505" fill="none" id="id132" stroke="none" /><text fill="#e1ed5e" style="font-size:6.75px; font-family:Arial;" text-anchor="middle"><textPath startOffset="22.20632615414155" xlink:href="#id132">December</textPath></text></svg>