<?xml version="1.0" encoding="utf-8" ?>
<svg baseProfile="full" height="200mm" version="1.1" viewBox="0,0,200,200" width="200mm" xmlns="http://www.w3.org/2000/svg" xmlns:ev="http://www.w3.org/2001/xml-events" xmlns:xlink="http://www.w3.org/1999/xlink"><defs /><rect fill="#1a1a1a" height="200" width="200" x="0" y="0" /><text alignment-baseline="middle" fill="#e1ed5e" style="dominant-baseline: central; font-size:9.0px; font-family:Arial;" text-anchor="middle" x="100.0" y="100.0">2017</text><line stroke="#e1ed5e" stroke-width="0.3" x1="100.0" x2="100.0" y1="15.0" y2="10.0" /><path d="M 100.0 14.0 a86.0,86.0 0 0,1 42.46469731375804,11.215312516191453" fill="none" id="id49" stroke="none" /><text fill="#e1ed5e" style="font-size:6.75px; font-family:Arial;" text-anchor="middle"><textPath startOffset="22.20632615414155" xlink:href="#id49">January</textPath></text><path d="M 101.44485096284872 79.0497635885617 l 0.7402973246781224 -10.734258664425218 a31.759756001123513,31.759756001123513 0 0,0 0.5450727450601511,0.04230813557570337 l -0.9249602591006147 10.71992526666105" fill="#ff2503" stroke="none" /><path d="M 104.307194497241 79.44645832069477 l 2.1154964410111035 -10.094957239705689 a31.314237095559562,31.314237095559562 0 0,0 0.526611936565636,0.11509697243822711 l -2.2889511017302673 10.057046769171592" fill="#ff1d03" stroke="none" /><path d="M 104.66035177308747 79.52364482259891 l 2.379073799308004 -10.453022106442038 a31.720338767983023,31.720338767983023 0 0,0 0.5313554200047998,0.1257546605100509 l -2.558652906275327 10.410521533791119" fill="#ff2403" stroke="none" /><path d="M 107.08798089147638 80.2323363322302 l 3.6397130918283493 -10.150792637288683 a31.7836034124063,31.7836034124063 0 0,0 0.5134076203868223,0.18909235941360905 l -3.813903037987748 10.086637010068749" fill="#ff2503" stroke="none" /><line stroke="#e1ed5e" stroke-width="0.3" x1="143.23703022742887" x2="145.7803849466894" y1="26.81831364943548" y2="22.513508569990506" /><path d="M 143.74570117128098 25.957352633546492 a86.0,86.0 0 0,1 28.547481713284135,27.462654790039103" fill="none" id="id50" stroke="none" /><text fill="#e1ed5e" style="font-size:6.75px; font-family:Arial;" text-anchor="middle"><textPath startOffset="19.985693538727396" xlink:href="#id50">February</textPath></text><path d="M 116.60985879189232 87.15038557335679 l 8.523595094930304 -6.59396999522618 a31.77646109074139,31.77646109074139 0 0,0 0.3309655511941643,0.4355118700256833 l -8.635836586348582 6.446273349319463" fill="#ff2503" stroke="none" /><path d="M 117.04232023915458 87.72973835380427 l 8.696812513199774 -6.26159839314016 a31.71644354843171,31.71644354843171 0 0,0 0.31518197682191684,0.4458025542485575 l -8.803307109825573 6.1109693385598085" fill="#ff2403" stroke="none" /><line stroke="#e1ed5e" stroke-width="0.3" x1="172.23445277983987" x2="176.4835382374775" y1="55.19839476539836" y2="52.563006222186495" /><path d="M 173.08426987136738 54.67131705675599 a86.0,86.0 0 0,1 12.851231095245387,41.99856678651699" fill="none" id="id51" stroke="none" /><text fill="#e1ed5e" style="font-size:6.75px; font-family:Arial;" text-anchor="middle"><textPath startOffset="22.20632615414155" xlink:href="#id51">March</textPath></text><path d="M 119.196687751892 91.48605970444005 l 9.796472947528576 -4.344842550981535 a31.716741062677542,31.716741062677542 0 0,0 0.21704715924861379,0.5009747686388267 l -9.869810816619871 4.175568637756105" fill="#ff2403" stroke="none" /><path d="M 119.47837535516314 92.15188598940014 l 9.92952484009075 -4.000746550736279 a31.70520604720934,31.70520604720934 0 0,0 0.19960155913194244,0.5079641964079894 l -9.996919949104392 3.829233349432506" fill="#ff2403" stroke="none" /><path d="M 119.61058180528143 92.48833698450437 l 10.009876644915906 -3.834196299216288 a31.719080730517742,31.719080730517742 0 0,0 0.19091172672780757,0.5115485122916702 l -10.074392960145337 3.6613246498952847" fill="#ff2403" stroke="none" /><path d="M 120.67395015179393 96.31383870115 l 10.642388135208693 -1.8975357386136757 a31.810229743152867,31.810229743152867 0 0,0 0.09147431232395409,0.5398865693999008 l -10.67347430905287 1.714063380897937" fill="#ff2503" stroke="none" /><path d="M 120.78858239683441 97.02765380044208 l 10.58528857347509 -1.5134818556643639 a31.692939797416216,31.692939797416216 0 0,0 0.07256777843232867,0.5407142388315744 l -10.609772350965255 1.3310492747681253" fill="#ff2403" stroke="none" /><path d="M 120.83666639777658 97.38593545837742 l 10.57067908776968 -1.3261448283857242 a31.653540091559492,31.653540091559492 0 0,0 0.06317089006780972,0.5412096082885596 l -10.591940330841078 1.143991481772312" fill="#ff2303" stroke="none" /><path d="M 120.87857604477298 97.74499172005257 l 10.530246856243256 -1.13732822582332 a31.59148782497886,31.59148782497886 0 0,0 0.05373994043252966,0.5411538662903725 l -10.548263922358014 0.9558988288285124" fill="#ff2203" stroke="none" /><line stroke="#e1ed5e" stroke-width="0.3" x1="184.98032266829074" x2="189.97916517819016" y1="98.17113171792111" y2="98.06355123074" /><path d="M 185.9800911702706 98.14961562048488 a86.0,86.0 0 0,1 -9.607161424134198,41.387399972396054" fill="none" id="id52" stroke="none" /><text fill="#e1ed5e" style="font-size:6.75px; font-family:Arial;" text-anchor="middle"><textPath startOffset="21.466115282336823" xlink:href="#id52">April</textPath></text><path d="M 120.49622156327973 104.57218783832717 l 10.519757561554144 2.3466914346427266 a31.778323610065765,31.778323610065765 0 0,0 -0.12369248512202509,0.5328639885725837 l -10.477804510501565 -2.5274240805638755" fill="#ff2503" stroke="none" /><path d="M 119.9155931802556 106.66101706037122 l 10.170604813272654 3.401684878895148 a31.72439566050548,31.72439566050548 0 0,0 -0.17767046726001068,0.5163935435598151 l -10.110543515069411 -3.576251125544264" fill="#ff2403" stroke="none" /><path d="M 119.67450827220406 107.3425965602758 l 10.069358683073006 3.757920523735272 a31.747741667489432,31.747741667489432 0 0,0 -0.1954840289330459,0.5103471139625648 l -10.003180374546453 -3.9306912045309805" fill="#ff2403" stroke="none" /><path d="M 119.41010516605496 108.01547362559984 l 9.906840636239824 4.091065924345036 a31.718316649044745,31.718316649044745 0 0,0 -0.21273779896426687,0.5028493150216212 l -9.834951856083247 -4.260989765032821" fill="#ff2403" stroke="none" /><path d="M 119.26925614724726 108.34839909993367 l 9.859553542518904 4.271648437859982 a31.745128032483777,31.745128032483777 0 0,0 -0.22154912045274683,0.4995347793612798 l -9.784563337334884 -4.44073155371395" fill="#ff2403" stroke="none" /><line stroke="#e1ed5e" stroke-width="0.3" x1="174.80103733775053" x2="179.2010983576182" y1="140.37084112569926" y2="142.7455964860345" /><path d="M 175.68104954172406 140.8457921977663 a86.0,86.0 0 0,1 -30.038265399797805,32.042727171017184" fill="none" id="id53" stroke="none" /><text fill="#e1ed5e" style="font-size:6.75px; font-family:Arial;" text-anchor="middle"><textPath startOffset="22.206326154141568" xlink:href="#id53">May</textPath></text><path d="M 118.48025628344425 109.97397251340804 l 9.452218297586578 5.101453358919029 a31.741008198416793,31.741008198416793 0 0,0 -0.26363717226652045,0.4785780462569395 l -9.363004715868549 -5.263401923573773" fill="#ff2403" stroke="none" /><path d="M 117.35343817320211 111.8261652097733 l 52.0603145196063 35.47849562931987 a84.0,84.0 0 0,0 -0.8245563713514552,1.1878349512519217 l -51.44189724109271 -36.36937184275882" fill="#4dd2ff" stroke="none" /><path d="M 115.80600337817218 113.82643327865902 l 8.068743604349091 7.05820076200949 a31.720206217678637,31.720206217678637 0 0,0 -0.3630319453213722,0.4078702390437906 l -7.94605280937938 -7.1960451707941475" fill="#ff2403" stroke="none" /><path d="M 113.75828350139079 115.86535959552629 l 7.017633935486885 8.092382010082357 a31.711387988939702,31.711387988939702 0 0,0 -0.4154713153055844,0.3540736683611122 l -6.877297143604253 -8.211980068666417" fill="#ff2403" stroke="none" /><path d="M 112.92097659922987 116.55440617244103 l 6.577683467525548 8.427353997503435 a31.690473104507397,31.690473104507397 0 0,0 -0.43290887210156076,0.33193606294616335 l -6.431645866930492 -8.53932940227697" fill="#ff2403" stroke="none" /><path d="M 111.7513745106137 117.40417183066458 l 5.985406792428737 8.8645841554765 a31.69607155550004,31.69607155550004 0 0,0 -0.4548013481057478,0.30141753396497767 l -5.8319307455830245 -8.966299710532796" fill="#ff2403" stroke="none" /><line stroke="#e1ed5e" stroke-width="0.3" x1="143.8653032363475" x2="146.44561519142675" y1="172.8068346515853" y2="177.08958963109032" /><path d="M 144.38136562736335 173.6633856474863 a86.0,86.0 0 0,1 -40.68145358897372,12.25698825130547" fill="none" id="id54" stroke="none" /><text fill="#e1ed5e" style="font-size:6.75px; font-family:Arial;" text-anchor="middle"><textPath startOffset="21.466115282336833" xlink:href="#id54">June</textPath></text><path d="M 110.21172684928248 118.3499491758327 l 10.448197442952637 18.7748746991521 a42.48629213651773,42.48629213651773 0 0,0 -0.6421038063054828,0.3501261917280832 l -10.123470824778506 -18.951941542639954" fill="#ffc912" stroke="none" /><path d="M 107.93186726928326 119.44442032107085 l 3.22206614866025 7.898670813550455 a29.53057506192731,29.53057506192731 0 0,0 -0.4723189416983354,0.18794545445381106 l -3.0856261309200486 -7.952963112410335" fill="#ff0000" stroke="none" /><path d="M 106.91757812671514 119.82793768551818 l 3.5262802215483124 10.107419564155567 a31.704885914700704,31.704885914700704 0 0,0 -0.5168353363035354,0.17533860718424332 l -3.35177515230755 -10.166621158237932" fill="#ff2403" stroke="none" /><path d="M 102.70371172650421 120.8252237178851 l 1.3803336659975947 10.631960914300398 a31.721189948541053,31.721189948541053 0 0,0 -0.5420888181290276,0.06563940654364592 l -1.1971174248171867 -10.654145849569394" fill="#ff2403" stroke="none" /><path d="M 102.34483914955558 120.86867818915974 l 1.1932101301737055 10.619371577517304 a31.686196849961707,31.686196849961707 0 0,0 -0.5425392154659269,0.05623640799205864 l -1.010238318102176 -10.63833735396512" fill="#ff2303" stroke="none" /><line stroke="#e1ed5e" stroke-width="0.3" x1="102.19456741930631" x2="102.32365962044197" y1="184.97166512339345" y2="189.96999836594603" /><path d="M 102.22038585953345 185.97133177190398 a86.0,86.0 0 0,1 -42.740103519485714,-10.115201625700543" fill="none" id="id55" stroke="none" /><text fill="#e1ed5e" style="font-size:6.75px; font-family:Arial;" text-anchor="middle"><textPath startOffset="22.20632615414155" xlink:href="#id55">July</textPath></text><path d="M 93.42475214034765 119.94407469862007 l -3.350499957018111 10.162753229507246 a31.700813201146833,31.700813201146833 0 0,0 -0.516768945202653,-0.17531608371817828 l 3.52493863515799 -10.103574158890945" fill="#ff2403" stroke="none" /><path d="M 92.06813273071674 119.44442032107085 l -4.049818793804579 9.927848787366822 a31.72208999250956,31.72208999250956 0 0,0 -0.5038201131853272,-0.21059684817248855 l 4.220110366487368 -9.85666689617436" fill="#ff2403" stroke="none" /><line stroke="#e1ed5e" stroke-width="0.3" x1="58.666819895761336" x2="56.23545636021788" y1="174.27360380694188" y2="178.64263932499728" /><path d="M 58.180547188652646 175.14741091055294 a86.0,86.0 0 0,1 -31.652253787137756,-30.449443065178592" fill="none" id="id56" stroke="none" /><text fill="#e1ed5e" style="font-size:6.75px; font-family:Arial;" text-anchor="middle"><textPath startOffset="22.20632615414155" xlink:href="#id56">August</textPath></text><path d="M 89.4739219176387 118.17145234162733 l -5.295377291697506 9.141552564412576 a31.56451626669881,31.56451626669881 0 0,0 -0.46780436179256835,-0.2763870626656069 l 5.451949524518457 -9.049046929453219" fill="#ff2103" stroke="none" /><path d="M 89.1626897886671 117.98757091392108 l -10.878108305610743 18.05528685077855 a42.07905651523555,42.07905651523555 0 0,0 -0.6172011739960215,-0.37913537131728775 l 11.187288679539074 -17.865363012632884" fill="#ffc412" stroke="none" /><path d="M 88.24862548938628 117.40417183066458 l -5.99001501878052 8.871409090141677 a31.704306571182673,31.704306571182673 0 0,0 -0.449662354287239,-0.3092818675190152 l 6.1418342576906495 -8.76698643325756" fill="#ff2403" stroke="none" /><path d="M 87.65650970185807 116.9893568818739 l -31.02958938813971 42.70856583347969 a73.79069059170585,73.79069059170585 0 0,0 -1.021175415673484,-0.7554411596589932 l 31.760149774231756 -42.16811472508093" fill="#3fffba" stroke="none" /><path d="M 85.97065885151581 115.62618273729859 l -7.156846980632685 7.971450516358222 a31.712818585178177,31.712818585178177 0 0,0 -0.4030555032409505,-0.36818164585686225 l 7.29300203334049 -7.847076103914784" fill="#ff2403" stroke="none" /><path d="M 85.18274418774928 114.88116024355367 l -7.555902955290353 7.588490344443665 a31.7087279906383,31.7087279906383 0 0,0 -0.38346327337079145,-0.3884462713987181 l 7.685406853716677 -7.457303579064282" fill="#ff2403" stroke="none" /><path d="M 83.72743513129214 113.27417163493432 l -8.314012369397407 6.782067120750805 a31.72936326670237,31.72936326670237 0 0,0 -0.34159241411932717,-0.4261890588486251 l 8.429522695571594 -6.637950228323921" fill="#ff2403" stroke="none" /><path d="M 83.50135304334701 112.99209946851258 l -11.157389410507394 8.786048541501009 a35.201478353724816,35.201478353724816 0 0,0 -0.37077747788998383,-0.4792798714798055 l 11.306973705615446 -8.59269067590795" fill="#ff5c08" stroke="none" /><path d="M 82.6465618267979 111.8261652097733 l -8.893567680465717 6.060862386100885 a31.76241603685143,31.76241603685143 0 0,0 -0.3040069994314073,-0.4544492159386144 l 8.996577785307853 -5.906876255956449" fill="#ff2503" stroke="none" /><line stroke="#e1ed5e" stroke-width="0.3" x1="26.63291911575756" x2="22.317208475507996" y1="142.92168965132927" y2="145.44649492493687" /><path d="M 25.769776987707644 143.4266507060508 a86.0,86.0 0 0,1 -11.730757126820373,-40.83630448921669" fill="none" id="id57" stroke="none" /><text fill="#e1ed5e" style="font-size:6.75px; font-family:Arial;" text-anchor="middle"><textPath startOffset="21.46611528233685" xlink:href="#id57">September</textPath></text><path d="M 81.35079622478065 109.6543875284942 l -13.364018300919742 6.918333520834199 a36.04859873386276,36.04859873386276 0 0,0 -0.28052904559185493,-0.5535104207501891 l 13.481126016297864 -6.687268888381325" fill="#ff6909" stroke="none" /><path d="M 81.02952815118164 109.00673069616217 l -9.647461508568561 4.580386212938596 a31.67958105072432,31.67958105072432 0 0,0 -0.22963982684763215,-0.4946237573117349 l 9.72487595225602 -4.413642388348034" fill="#ff2303" stroke="none" /><path d="M 80.32549172779594 107.34259656027581 l -14.1304379418248 5.273529767115772 a36.0824199859445,36.0824199859445 0 0,0 -0.2121573082135408,-0.5837657942654834 l 14.219119511043566 -5.029516175844171" fill="#ff6909" stroke="none" /><path d="M 79.23777060512086 103.15116336523772 l -10.791211479129249 1.637823647587283 a31.914793240730077,31.914793240730077 0 0,0 -0.0777595563224279,-0.543850155809741 l 10.817805086468276 -1.4518280197971414" fill="#ff2703" stroke="none" /><path d="M 79.1416061653843 102.43462659150553 l -15.00722269634671 1.7516681164843977 a36.109105673336586,36.109105673336586 0 0,0 -0.06674630367115413,-0.6179878758308691 l 15.035151301518916 -1.4930839187687466" fill="#ff6a09" stroke="none" /><path d="M 79.0095281055655 100.63252640178507 l -10.8320053771554 0.32641140322077933 a31.836922298091654,31.836922298091654 0 0,0 -0.011791694568421203,-0.5479137120204124 l 10.83601913440883 -0.1399078754102381" fill="#ff2603" stroke="none" /><line stroke="#e1ed5e" stroke-width="0.3" x1="15.007084014347285" x2="10.007500721073583" y1="101.09737516637583" y2="101.16192664675087" /><path d="M 14.007167355692545 101.11028546245083 a86.0,86.0 0 0,1 10.666146001902534,-42.60595125391555" fill="none" id="id58" stroke="none" /><text fill="#e1ed5e" style="font-size:6.75px; font-family:Arial;" text-anchor="middle"><textPath startOffset="22.20632615414155" xlink:href="#id58">October</textPath></text><path d="M 79.00019446554 99.90962569577889 l -10.805034529316108 -0.046500310494291125 a31.805134587712892,31.805134587712892 0 0,0 0.007068301749569286,-0.5474477600459529 l 10.802633220448824 0.23248432860071594" fill="#ff2503" stroke="none" /><path d="M 79.03285615573316 98.82574320788736 l -10.743051912689225 -0.6016604726992165 a31.759886603637803,31.759886603637803 0 0,0 0.03526770406493756,-0.5455757720292637 l 10.731103617619874 0.7864953089814919" fill="#ff2503" stroke="none" /><path d="M 79.71946130924805 94.55025226153421 l -10.442026308315885 -2.805961425703865 a31.812461928076285,31.812461928076285 0 0,0 0.14666034169008393,-0.5276152809506763 l 10.39217919605944 2.985288010073484" fill="#ff2603" stroke="none" /><path d="M 79.81627453868168 94.20196356495316 l -10.387337091734823 -2.9838970529208892 a31.80742399833374,31.80742399833374 0 0,0 0.15569598167125143,-0.5249294495769223 l 10.334435212951865 3.162255889244351" fill="#ff2503" stroke="none" /><path d="M 79.91906864156998 93.8553929516997 l -10.340141385564761 -3.1640019331817655 a31.813391332354854,31.813391332354854 0 0,0 0.16473961191094025,-0.522269588916223 l 10.284146289885618 3.341521688524403" fill="#ff2603" stroke="none" /><path d="M 80.14247586403 93.16781622104843 l -10.263521500069638 -3.531269287527981 a31.8540193644304,31.8540193644304 0 0,0 0.18285256658127397,-0.516948828916694 l 10.201215852678555 3.707415742871286" fill="#ff2603" stroke="none" /><path d="M 80.2630227832202 92.82701384747504 l -10.116714268260298 -3.6767054325617994 a31.764110294095417,31.764110294095417 0 0,0 0.19118275197627987,-0.5122747252122971 l 10.05192692778239 3.850303294803438" fill="#ff2503" stroke="none" /><path d="M 80.38941819471856 92.48833698450439 l -10.038753896821763 -3.8452574797199572 a31.750003948199108,31.750003948199108 0 0,0 0.1998835863444617,-0.5086819249016681 l 9.97107676059561 4.017488409517389" fill="#ff2503" stroke="none" /><path d="M 80.95270993114464 91.15688171328213 l -9.805041389104696 -4.552203515385849 a31.810244839389505,31.810244839389505 0 0,0 0.23485322924928817,-0.49466079583972683 l 9.725229966013655 4.7203067268661085" fill="#ff2503" stroke="none" /><path d="M 81.10775173730289 90.83032412892265 l -19.404315826809054 -9.418216622908869 a42.56919741350126,42.56919741350126 0 0,0 0.3256340629089741,-0.6564584003646281 l 19.23932175094667 9.75083461177246" fill="#ffcb12" stroke="none" /><path d="M 81.26839172434947 90.50648371742162 l -19.369697643882066 -9.816911461353328 a42.71536178504657,42.71536178504657 0 0,0 0.3380423898965568,-0.652990300548495 l 19.197845820825396 10.148874484162159" fill="#ffcd13" stroke="none" /><path d="M 81.43458229118936 90.18545643968196 l -9.51073875996625 -5.027818997371424 a31.757932683868837,31.757932683868837 0 0,0 0.25964665844691714,-0.48108582460885146 l 9.422784002300862 5.190785805312748" fill="#ff2503" stroke="none" /><line stroke="#e1ed5e" stroke-width="0.3" x1="26.266209847984243" x2="21.928928074336255" y1="57.711370442889674" y2="55.22380399835377" /><path d="M 25.398753493254645 57.213857153982495 a86.0,86.0 0 0,1 29.58750427330803,-30.492523968695096" fill="none" id="id59" stroke="none" /><text fill="#e1ed5e" style="font-size:6.75px; font-family:Arial;" text-anchor="middle"><textPath startOffset="21.46611528233685" xlink:href="#id59">November</textPath></text><path d="M 81.78341655067845 89.55222093294921 l -17.050776224743753 -9.7791522440768 a40.65606238490098,40.65606238490098 0 0,0 0.35339861249974286,-0.6040727846054114 l 16.879917937773687 10.071204441036102" fill="#ffaf10" stroke="none" /><path d="M 81.96595687620814 89.24020034530311 l -12.331754388022498 -7.357596169380367 a35.3598881499193,35.3598881499193 0 0,0 0.31636020751124977,-0.5200129998327789 l 12.20327838222503 7.56877694242022" fill="#ff5e08" stroke="none" /><path d="M 83.39014120810768 87.1503855733568 l -17.00934430217854 -13.15866189300182 a42.505073271309534,42.505073271309534 0 0,0 0.4526707710086975,-0.57484590974452 l 16.78031945057587 13.449500196699388" fill="#ffca12" stroke="none" /><path d="M 83.6137871275137 86.86637796730984 l -11.613582497081229 -9.308337695175293 a35.883563050020406,35.883563050020406 0 0,0 0.3904499174572146,-0.4786454314846288 l 11.451634087547621 9.506867296268005" fill="#ff6609" stroke="none" /><path d="M 83.84228863543731 86.58626213691792 l -10.578191523055114 -8.781756583852593 a34.74835934198963,34.74835934198963 0 0,0 0.3860201634867484,-0.4569261165410447 l 10.425460746081242 8.962541650022754" fill="#ff5507" stroke="none" /><path d="M 84.07557802195018 86.31012108654704 l -11.385056458472718 -9.787485194385972 a36.013806212714215,36.013806212714215 0 0,0 0.40817042391222813,-0.46660935392387326 l 11.214894170982646 9.982010104512788" fill="#ff6809" stroke="none" /><path d="M 84.5562425177563 85.77008943001954 l -11.053032104008707 -10.18428698767137 a36.029611443397314,36.029611443397314 0 0,0 0.4241760631197631,-0.45248144931545003 l 10.876088718918488 10.37303785386487" fill="#ff6909" stroke="none" /><path d="M 85.05521093208273 85.24692304244772 l -10.674998088961924 -10.538058959043358 a36.00020902599743,36.00020902599743 0 0,0 0.43914117804543334,-0.4372553662682995 l 10.492021110749178 10.720250175961766" fill="#ff6809" stroke="none" /><path d="M 85.31137513191541 84.99185889309783 l -10.495144824600233 -10.723441838808034 a36.004674930155325,36.004674930155325 0 0,0 0.44665814893300054,-0.4296847853867543 l 10.309003432054805 10.902509710957101" fill="#ff6809" stroke="none" /><path d="M 85.57189188830299 84.74124197986013 l -11.755771628207356 -12.432570731114614 a38.11043487345464,38.11043487345464 0 0,0 0.4805401285543033,-0.4466096783360957 l 11.540023615858196 12.633084995525357" fill="#ff890c" stroke="none" /><path d="M 85.83668400450813 84.49514656593479 l -16.923820275353755 -18.52683036919762 a46.09300970871167,46.09300970871167 0 0,0 0.5904053885845549,-0.5300717873076726 l 16.60240389917323 18.81540116527457" fill="#fffc17" stroke="none" /><path d="M 86.10567301691215 84.25364557470407 l -14.068829727491059 -15.944117301101613 a42.263744882132684,42.263744882132684 0 0,0 0.5496424199867203,-0.47664449034613504 l 13.792293508857565 16.183926784867428" fill="#ffc612" stroke="none" /><path d="M 86.37877921826538 84.01681056812374 l -13.928371045922297 -16.34360065604095 a42.47353725861272,42.47353725861272 0 0,0 0.5605343204719488,-0.46943137329118095 l 13.644979188491238 16.580933186725943" fill="#ffc912" stroke="none" /><path d="M 86.65592168130627 83.78471172551755 l -13.504038813528476 -16.409667044924813 a42.2517349127683,42.2517349127683 0 0,0 0.5655628137491815,-0.45731246312782564 l 13.219572601214795 16.63968560531677" fill="#ffc612" stroke="none" /><path d="M 86.93701828274178 83.55741782278169 l -13.302082425865569 -16.7435420296472 a42.38437739479651,42.38437739479651 0 0,0 0.5751508441597029,-0.44891435675816704 l 13.011899026546441 16.97003477562859" fill="#ffc812" stroke="none" /><path d="M 87.51073957382395 83.11751280151077 l -12.662369035971277 -17.116488555582492 a42.291072544062,42.291072544062 0 0,0 0.5889629639015675,-0.4279066406945763 l 12.365860755715929 17.331914431093736" fill="#ffc712" stroke="none" /><path d="M 87.80319425747018 82.90503203632743 l -12.503617173998814 -17.524992980268674 a42.528256348166806,42.528256348166806 0 0,0 0.5995853520236053,-0.42004785606811307 l 12.200100682391549 17.73762567910073" fill="#ffca12" stroke="none" /><path d="M 88.09926311788651 82.69761687909137 l -12.056792491513598 -17.529271083288993 a42.27537519986076,42.27537519986076 0 0,0 0.6031192358133565,-0.40722880028744085 l 11.753268561293702 17.734211795875098" fill="#ffc612" stroke="none" /><path d="M 88.70189139769569 82.29822771554957 l -11.435867643532996 -17.91761187882793 a42.256055236113795,42.256055236113795 0 0,0 0.6164974295545664,-0.38605063382948834 l 11.125751061606186 18.111806853980347" fill="#ffc612" stroke="none" /><line stroke="#e1ed5e" stroke-width="0.3" x1="56.762969772571076" x2="54.21961505331055" y1="26.818313649435495" y2="22.513508569990535" /><path d="M 56.25429882871897 25.957352633546506 a86.0,86.0 0 0,1 42.265352541879196,-11.944610805530505" fill="none" id="id60" stroke="none" /><text fill="#e1ed5e" style="font-size:6.75px; font-family:Arial;" text-anchor="middle"><textPath startOffset="22.20632615414155" xlink:href="#id60">December</textPath></text><path d="M 89.63071344664047 81.73862282372117 l -10.529149834910088 -18.54291281192839 a42.32375698128182,42.32375698128182 0 0,0 0.6366216804931316,-0.3542792759387613 l 10.208404065344912 18.72140748542733" fill="#ffc712" stroke="none" /><path d="M 90.58718382345135 81.22770947309562 l -9.546650453648994 -19.03920065083154 a42.298584373304735,42.298584373304735 0 0,0 0.6536717139962467,-0.32075387119287185 l 9.217507472642321 19.200709682159243" fill="#ffc712" stroke="none" /><path d="M 91.90106846888425 80.62456947434976 l -8.206968174046684 -19.633891343758215 a42.280131952323956,42.280131952323956 0 0,0 0.6738972457321213,-0.27489960708627353 l 7.867787058726184 19.77225183702807" fill="#ffc612" stroke="none" /><path d="M 92.57280143429618 80.3572730644239 l -7.535523921763057 -19.929215221899334 a42.3062840527448,42.3062840527448 0 0,0 0.6833828229322441,-0.2516956609908301 l 7.191358773058244 20.055974150696485" fill="#ffc712" stroke="none" /><path d="M 97.11714578562143 79.19881850522333 l -2.939925543960152 -21.212978622378095 a42.41573310063187,42.41573310063187 0 0,0 0.7240674093389647,-0.0940047306059923 l 2.5743434061133295 21.260441676148222" fill="#ffc812" stroke="none" /></svg>