<?xml version="1.0" encoding="utf-8" ?>
<svg baseProfile="full" height="200mm" version="1.1" viewBox="0,0,200,200" width="200mm" xmlns="http://www.w3.org/2000/svg" xmlns:ev="http://www.w3.org/2001/xml-events" xmlns:xlink="http://www.w3.org/1999/xlink"><defs /><rect fill="#1a1a1a" height="200" width="200" x="0" y="0" /><text alignment-baseline="middle" fill="#e1ed5e" style="dominant-baseline: central; font-size:9.0px; font-family:Arial;" text-anchor="middle" x="100.0" y="100.0">2023</text><line stroke="#e1ed5e" stroke-width="0.3" x1="100.0" x2="100.0" y1="15.0" y2="10.0" /><path d="M 100.0 14.0 a86.0,86.0 0 0,1 42.46469731375804,11.215312516191453" fill="none" id="id121" stroke="none" /><text fill="#e1ed5e" style="font-size:6.75px; font-family:Arial;" text-anchor="middle"><textPath startOffset="22.20632615414155" xlink:href="#id121">January</textPath></text><path d="M 100.0 79.0 l 0.0 -29.4612137686009 a50.4612137686009,50.4612137686009 0 0,0 0.8686068446546362,0.0074763733409101705 l -0.5071263653821079 29.456848771868547" fill="#c8ff1d" stroke="none" /><path d="M 101.08401301168833 79.027996857942 l 1.7118429874950083 -33.1183999872294 a54.16261184116764,54.16261184116764 0 0,0 0.9306631374410622,0.05614014198123087 l -2.2816681737756825 33.08402657586787" fill="#99ff23" stroke="none" /><path d="M 101.80526077348638 79.07773832637324 l 1.8777331660783811 -21.762188172996407 a42.84304731304438,42.84304731304438 0 0,0 0.734196962230881,0.06972084824922613 l -2.2520552553995064 21.726641780232" fill="#ffcd13" stroke="none" /><path d="M 102.16513564639614 79.11191278185805 l 2.2476846835552693 -21.68447680732255 a42.80065643149303,42.80065643149303 0 0,0 0.7321629000872819,0.08226703274712442 l -2.6206142871522764 21.642573821104822" fill="#ffcc13" stroke="none" /><path d="M 102.52436894288641 79.15227682838746 l 1.0476165252331446 -8.651833310504344 a29.715028400223037,29.715028400223037 0 0,0 0.507257143973858,0.06585653566531813 l -1.1963883977148488 8.632518451674889" fill="#ff0000" stroke="none" /><path d="M 102.88285421437855 79.19881850522331 l 3.6640102205822394 -26.43759827219611 a47.69028986913701,47.69028986913701 0 0,0 0.8121679518834485,0.1196924441936087 l -4.118547152894344 26.37061134384153" fill="#edff19" stroke="none" /><path d="M 104.307194497241 79.44645832069477 l 9.456843962874922 -45.12720209643225 a67.10744263988627,67.10744263988627 0 0,0 1.1285467443678865,0.2466566071002305 l -10.232233431396336 44.957731991236145" fill="#35ff66" stroke="none" /><path d="M 104.66035177308747 79.52364482259891 l 4.8287347060469745 -21.216185325202794 a42.75874993226249,42.75874993226249 0 0,0 0.7162626381553688,0.16951622493367657 l -5.193221031164867 21.12992318812825" fill="#ffcb13" stroke="none" /><path d="M 105.01212808612495 79.60689891045804 l 5.196402349558914 -21.142867180479005 a42.772079137966536,42.772079137966536 0 0,0 0.7134609111662074,0.18187707212611834 l -5.559572149410147 21.05028711218402" fill="#ffcc13" stroke="none" /><path d="M 105.71112130821622 79.79150937346287 l 8.472095072054124 -29.97804539792055 a52.152200577001125,52.152200577001125 0 0,0 0.8617773222604437,0.25157643185796047 l -8.986862612037996 29.827770637143885" fill="#b2ff20" stroke="none" /><path d="M 106.74666289553966 80.11325718540242 l 8.338421844816276 -24.578677380948296 a46.954588431698326,46.954588431698326 0 0,0 0.7631640963590984,0.26625296809984633 l -8.760267945238649 24.43150355967624" fill="#f7ff18" stroke="none" /><path d="M 107.08798089147638 80.2323363322302 l 5.694823842956624 -15.882289201729845 a37.872407323488005,37.872407323488005 0 0,0 0.6117614252222497,0.22531689577640038 l -5.96736759395145 15.78190903814712" fill="#ff830c" stroke="none" /><path d="M 107.4271985657038 80.35727306442388 l 6.816100025288687 -18.026553400707684 a40.27215211291428,40.27215211291428 0 0,0 0.6463044401783973,0.2507560818472987 l -7.125387630466752 17.90655461496984" fill="#ffa70f" stroke="none" /><path d="M 108.09893153111575 80.62456947434976 l 17.701988093289327 -42.349245594889474 a66.90009787474557,66.90009787474557 0 0,0 1.0586661490093126,0.45326559547401396 l -18.428338000088953 42.03826047145267" fill="#35ff63" stroke="none" /><path d="M 109.08828744355905 81.06846463323043 l 11.305018692643394 -23.549140861895623 a47.122126310360315,47.122126310360315 0 0,0 0.7282135212988394,0.3573312123047404 l -11.708703480952666 23.35105448945605" fill="#f5ff19" stroke="none" /><path d="M 109.41281617654863 81.2277094730956 l 10.070822485100331 -20.08457426441575 a43.46801257141436,43.46801257141436 0 0,0 0.6659703414387,0.3411358753132991 l -10.415053314127785 19.90824586378995" fill="#ffd614" stroke="none" /><path d="M 109.73455568895987 81.39251694778311 l 14.929876383722904 -28.53827443782396 a53.20767481085531,53.20767481085531 0 0,0 0.8078824131500962,0.4315428063650198 l -15.418903843401312 28.277052904957188" fill="#a5ff21" stroke="none" /><line stroke="#e1ed5e" stroke-width="0.3" x1="143.23703022742887" x2="145.7803849466894" y1="26.81831364943548" y2="22.513508569990506" /><path d="M 143.74570117128098 25.957352633546492 a86.0,86.0 0 0,1 28.547481713284135,27.462654790039103" fill="none" id="id122" stroke="none" /><text fill="#e1ed5e" style="font-size:6.75px; font-family:Arial;" text-anchor="middle"><textPath startOffset="19.985693538727396" xlink:href="#id122">February</textPath></text><path d="M 110.68208982089419 81.91981866633111 l 11.114246431008395 -18.811636508303835 a42.84957990098969,42.84957990098969 0 0,0 0.6318026373326046,0.3806540197049347 l -11.436411134558638 18.617535879140284" fill="#ffcd13" stroke="none" /><path d="M 110.99172775467656 82.1063720568725 l 16.115975400028447 -26.235481280548697 a51.79001690672389,51.79001690672389 0 0,0 0.7555937751684231,0.47315275269216034 l -16.565188327569132 25.954184186533592" fill="#b7ff1f" stroke="none" /><path d="M 111.60114157652 82.49532879139004 l 12.04228260912996 -18.170297835225124 a42.79853880100546,42.79853880100546 0 0,0 0.6105829195733671,0.41226831287936017 l -12.35327022310987 17.960317610047092" fill="#ffcc13" stroke="none" /><path d="M 112.77801427241765 83.33499621200491 l 38.33404281725294 -49.995011363985284 a84.0,84.0 0 0,0 1.1398697793622787,0.8896864431071037 l -39.188945151774654 49.32774653165496" fill="#4dd2ff" stroke="none" /><line stroke="#e1ed5e" stroke-width="0.3" x1="172.23445277983987" x2="176.4835382374775" y1="55.19839476539836" y2="52.563006222186495" /><path d="M 173.08426987136738 54.67131705675599 a86.0,86.0 0 0,1 12.851231095245387,41.99856678651699" fill="none" id="id123" stroke="none" /><text fill="#e1ed5e" style="font-size:6.75px; font-family:Arial;" text-anchor="middle"><textPath startOffset="22.20632615414155" xlink:href="#id123">March</textPath></text><line stroke="#e1ed5e" stroke-width="0.3" x1="184.98032266829074" x2="189.97916517819016" y1="98.17113171792111" y2="98.06355123074" /><path d="M 185.9800911702706 98.14961562048488 a86.0,86.0 0 0,1 -9.607161424134198,41.387399972396054" fill="none" id="id124" stroke="none" /><text fill="#e1ed5e" style="font-size:6.75px; font-family:Arial;" text-anchor="middle"><textPath startOffset="21.466115282336823" xlink:href="#id124">April</textPath></text><line stroke="#e1ed5e" stroke-width="0.3" x1="174.80103733775053" x2="179.2010983576182" y1="140.37084112569926" y2="142.7455964860345" /><path d="M 175.68104954172406 140.8457921977663 a86.0,86.0 0 0,1 -30.038265399797805,32.042727171017184" fill="none" id="id125" stroke="none" /><text fill="#e1ed5e" style="font-size:6.75px; font-family:Arial;" text-anchor="middle"><textPath startOffset="22.206326154141568" xlink:href="#id125">May</textPath></text><line stroke="#e1ed5e" stroke-width="0.3" x1="143.8653032363475" x2="146.44561519142675" y1="172.8068346515853" y2="177.08958963109032" /><path d="M 144.38136562736335 173.6633856474863 a86.0,86.0 0 0,1 -40.68145358897372,12.25698825130547" fill="none" id="id126" stroke="none" /><text fill="#e1ed5e" style="font-size:6.75px; font-family:Arial;" text-anchor="middle"><textPath startOffset="21.466115282336833" xlink:href="#id126">June</textPath></text><line stroke="#e1ed5e" stroke-width="0.3" x1="102.19456741930631" x2="102.32365962044197" y1="184.97166512339345" y2="189.96999836594603" /><path d="M 102.22038585953345 185.97133177190398 a86.0,86.0 0 0,1 -42.740103519485714,-10.115201625700543" fill="none" id="id127" stroke="none" /><text fill="#e1ed5e" style="font-size:6.75px; font-family:Arial;" text-anchor="middle"><textPath startOffset="22.20632615414155" xlink:href="#id127">July</textPath></text><line stroke="#e1ed5e" stroke-width="0.3" x1="58.666819895761336" x2="56.23545636021788" y1="174.27360380694188" y2="178.64263932499728" /><path d="M 58.180547188652646 175.14741091055294 a86.0,86.0 0 0,1 -31.652253787137756,-30.449443065178592" fill="none" id="id128" stroke="none" /><text fill="#e1ed5e" style="font-size:6.75px; font-family:Arial;" text-anchor="middle"><textPath startOffset="22.20632615414155" xlink:href="#id128">August</textPath></text><line stroke="#e1ed5e" stroke-width="0.3" x1="26.63291911575756" x2="22.317208475507996" y1="142.92168965132927" y2="145.44649492493687" /><path d="M 25.769776987707644 143.4266507060508 a86.0,86.0 0 0,1 -11.730757126820373,-40.83630448921669" fill="none" id="id129" stroke="none" /><text fill="#e1ed5e" style="font-size:6.75px; font-family:Arial;" text-anchor="middle"><textPath startOffset="21.46611528233685" xlink:href="#id129">September</textPath></text><line stroke="#e1ed5e" stroke-width="0.3" x1="15.007084014347285" x2="10.007500721073583" y1="101.09737516637583" y2="101.16192664675087" /><path d="M 14.007167355692545 101.11028546245083 a86.0,86.0 0 0,1 10.666146001902534,-42.60595125391555" fill="none" id="id130" stroke="none" /><text fill="#e1ed5e" style="font-size:6.75px; font-family:Arial;" text-anchor="middle"><textPath startOffset="22.20632615414155" xlink:href="#id130">October</textPath></text><line stroke="#e1ed5e" stroke-width="0.3" x1="26.266209847984243" x2="21.928928074336255" y1="57.711370442889674" y2="55.22380399835377" /><path d="M 25.398753493254645 57.213857153982495 a86.0,86.0 0 0,1 29.58750427330803,-30.492523968695096" fill="none" id="id131" stroke="none" /><text fill="#e1ed5e" style="font-size:6.75px; font-family:Arial;" text-anchor="middle"><textPath startOffset="21.46611528233685" xlink:href="#id131">November</textPath></text><line stroke="#e1ed5e" stroke-width="0.3" x1="56.762969772571076" x2="54.21961505331055" y1="26.818313649435495" y2="22.513508569990535" /><path d="M 56.25429882871897 25.957352633546506 a86.0,86.0 0 0,1 42.265352541879196,-11.944610805530505" fill="none" id="id132" stroke="none" /><text fill="#e1ed5e" style="font-size:6.75px; font-family:Arial;" text-anchor="middle"><textPath startOffset="22.20632615414155" xlink:href="#id132">December</textPath></text></svg>